<svg id="Layer_1" xmlns="http://www.w3.org/2000/svg" viewBox="0 0 216.9 216.9"><style>.st0{fill-rule:evenodd;clip-rule:evenodd;fill:#FFFFFF;}</style><path class="st0" d="M32.7 169.6c1.7 0 3-1.3 3-3s-1.3-3-3-3-3 1.3-3 3 1.3 3 3 3m153.5-.9c1.7 0 3-1.3 3-3s-1.3-3-3-3-3 1.3-3 3 1.4 3 3 3M144.4 24.3c1.7 0 3-1.3 3-3s-1.3-3-3-3-3 1.3-3 3 1.3 3 3 3M69.3 68.2c-23.6 6.6-36 23.6-31.6 56.3-2.2 1.6-2.9 4.4-1 7.5.5.7.8 1.2 1.1 1.8 7.4 16.8 22.5 25.4 44.5 27.6-.5-5.6 7.2-10.8 23.6-13 8.8-1.1 16.5-4 30 4.7 9.3 6.1 18.4 12.1 27.6 17.4-14.6 12.8-33.8 20.6-54.9 20.6-45.9 0-83.1-37-83.1-82.7s37.2-82.7 83.1-82.7c24.7 0 46.9 10.7 62.1 27.8-6.1 5.7-14.3 9.7-23.7 13.2-11.5 4.3-20.6 7.3-26.8 7.8 2.3-5.6 3.7-11.7 4.5-18-12.1-9.8-22.9-8.6-32.5 1.5 7.9 4.5 12 10.7 13.9 17.7C89 82.5 77.9 91.6 72.9 103c-1.5.2-2.4.1-4.2-.7-1.8 1.8-2.7 4.3-3.2 7-1.7-.7-3.1-2.1-4.3-4.2-.8.6-1.5 1.2-2.1 2-8-17.8-1.6-29.5 10.2-38.9m4.8 47.3l1-2.4c5.6 0 9.9-2.9 12.4-9.6 5.3-.5 10.5-2.7 15.6-6.4.2.7.2 1.4-.1 2.3 1.9-.1 4.8.7 6 2.2-3.6 1.3-6.6 3.4-9.2 5.8-3.3 3-7.2 5.1-11.3 6.9.6.3 1.4 1.4 1.7 2.6-5.2-.9-10.5-1.5-16.1-1.4m8.2-2.1c1.9-1.7 2.9-3.2 4-3.7.5-.2 4-.9 6.6-1.1-1.9 2.6-3.7 4.2-5.4 4.5-1.8.3-3.5.4-5.2.3m-30.1 4.9c-2.7-2.8-4.1-6.8-5.1-11.2-1.6 3.6 0 9.7 2.4 13.6l2.7-2.4zm5.1-2.5c1.9-1.4 2.8-3.4 3.2-5.1.6.7.9 1.1 1.3 2 .5 1.1 1.5 1.2 2.8.7 2.5-1 4.2.8 2.5 5.9-2-3.4-4.7-4.7-9.8-3.5m2.4 3.2c-1-.4-1.1.8-.5 1.5.7.6 1.9.8 1.9.2.1-.7-.6-1.3-1.4-1.7m24.6-16.4c3.1-4.6 6.8-9.7 11.3-14.3 2.8-2.8 5.3-3.9 7.5-1.6 1.5 1.5 2.9 3.6 3.7 5.5-2.3-2.1-5.2-2.7-8.5.1-4.3 3.6-9.2 7.2-14 10.3m75-11.2c2.9-4.5 5.5-7.1 11.5-11.1 3.7-2.5 8.5-7.3 11.4-10.5 3.1 5.3 5.3 11.3 7 17.8-11.8-.2-22.4.6-29.9 3.8m7.2 19.6c9.2-.3 17.7-1.6 25.3-4.3.2 2.6.1 5.2-.4 7.8-8.8 1.7-16 1.2-24.9-3.5m-6 15.7c11.3 5.8 19.8 4.6 28.4 1.7-.9 4.3-2 8-3.3 11.2-15.6 1.3-21.4-3.3-25.1-12.9M43.2 123c-6.7-25.5-.1-35.8 14.3-47.8C40.4 85 36 102.6 39.2 124.9c-1.9 1.6-2.5 3.8-.7 6.5.5.8.8 1.9 1.4 3.3 5.9 13.8 21 23 41.3 25.1.8-8.5 17.4-11.8 26.1-13.2 12.3-1.9 19-1.4 27.6 4.2 9.8 6.4 21.5 14.6 29.8 18.7l5.9-5.8c-14.2-7-24.7-14.4-31.3-22.4-.9-1.1-1-2.2-.6-3.6 1.7-6.2 2.3-12.7 2-19.5-.9-16.1-4.8-22.7-14-24.6 7.1 6.2 11 13.2 10.5 20.8-.6 7.8-3.5 15.3-8.1 22.4-.7 1.2-3.8 2.5-5.2 2.9-10.9 2.8-18.6 3.9-28.8 5.1 1.9-2.8 3.1-5.5 3.9-8.3-9.8 9.3-18.2 14.6-19 22.6-10.5.5-24.8-7.9-33.6-18.2-5.1-6-6-11.4-3.3-16.2.6-.7.3-1.1.1-1.7m23.6-11.8c.1-2.3.8-4.5 2.2-6.8 2 .3 4.5 1.6 6.6-2.8 4.1-8.6 13-17 32.6-25-1.7-7.5-5.5-14-13.3-18.8 8.7-7.8 18-8.5 28.1-.4-1 6.6-2.7 12.9-5.1 18.8 15.3-1 48.3-13.7 53.8-21.5 1.5 1.2 2.7 2.6 3.6 4.1-7.9 4.7-17.7 9.4-29.2 13.1-14.8 4.7-25.1 6.6-29.2 6.3 2.5-7.3 4.2-13.7 3.1-17.9-.9-3.3-4.4-5-8-5.7-3.9-.7-9.3-.6-14.9 2.6 10.1 3.5 13.6 9 12 22.2-20.6 6-29.4 16.2-32.2 28.6-2.5-.1-4.8-.5-6.8-1.5-1.1.8-2.2 2.3-3.3 4.7m-13.4 78.5l3.2 2 .7-4.8-3.9 2.8zm-7.5.5l10.8-8.2 5.4 3.3-2 13.9-4.2-2.7.1-1.6-4.8-3-1.5 1.3-3.8-3zm27.6 9.5l3.5 1.4-.2-4.8-3.3 3.4zm-7.3 1.8l9.2-10 5.9 2.3.5 14-4.6-1.9-.2-1.6-5.2-2.1-1.2 1.6-4.4-2.3zm29.2 4.7l3.7.5-1.4-4.6-2.3 4.1zm-6.6 3.6l6.4-12 6.3.7 4 13.4-4.9-.7-.6-1.5-5.6-.7-.8 1.8-4.8-1zM202.2 97.2l.4 3.7 4.1-2.4-4.5-1.3zm-5-5.6l13.2 3.4.8 6.3-12.1 7-.4-4.9 1.3-.9-.6-5.6-1.9-.3-.3-5zM97.9 16.8l3.7-.2-2.2-4.3-1.5 4.5zm-5.8 4.6l4.1-13 6.3-.4 6.4 12.5-5 .2-.9-1.3-5.6.3-.4 1.9-4.9-.2zm-33.8 9.9l3.1-2-4-2.6.9 4.6zm-2.7 6.9l-2.8-13.3 5.3-3.5 11.7 7.8-4.2 2.6-1.5-.8-4.7 3 .6 1.9-4.4 2.3zm-37.7 84.1c.2 2-1.1 3.8-2.9 4-1.8.2-3.4-1.4-3.6-3.4-.2-2 1.1-3.8 2.9-4 1.8-.1 3.4 1.4 3.6 3.4m3.9-.2c.5 5-2.4 9.4-6.5 9.7-4 .4-7.7-3.4-8.1-8.4-.5-5 2.4-9.4 6.5-9.7 4-.4 7.6 3.4 8.1 8.4m99.4-110.7c2 0 3.7 1.4 3.7 3.2 0 1.8-1.7 3.2-3.7 3.2s-3.7-1.4-3.7-3.2c0-1.8 1.7-3.2 3.7-3.2m.1-3.9c5 0 9.1 3.3 9.1 7.3s-4.1 7.3-9.1 7.3-9.1-3.3-9.1-7.3 4.1-7.3 9.1-7.3M132.7 195l4.3 12.5 13.3-4.6-1.1-2.9-8.4 2.9-.7-2.1 6.4-2.2-.9-2.4-6.3 2.2-.9-2.6 8.2-2.6.2.4-1.1-2.9-13 4.3zm34.5-10.4l-4 2.2c-3.1-2.1-7.7.3-6.4 4.3 1.2 3.4 7.1 1.5 7.1-1.5l4.5-2.3c2.1 7.2-11.4 14.1-15.5 6.2-4.4-8.4 10.1-14.8 14.3-8.9m-39.9 16.9l-4.6.7c-2.2-3.1-7.5-2.4-7.6 1.9-.1 3.7 6.3 3.9 7.3 1l5.1-.7c-.5 7.6-15.8 9.6-17 .6-1.2-9.4 14.8-10.6 16.8-3.5m76.1-115.9l-1.7-4.2c2.5-2.7.7-7.6-3.5-6.8-3.6.7-2.4 6.8.7 7.2l1.8 4.7c-7.5 1.2-12.8-12.9-4.3-16 8.9-3.3 13.6 11.7 7 15.1m-118-71.4l-4.1 1.9c-2.9-2.4-7.6-.2-6.5 3.9.9 3.5 6.9 1.9 7.1-1.1l4.5-2.1c.7 3.2-1.5 6.2-4.5 7.9v.9c1.1-.2 1.8-.1 2.3.3 1.2 1.2-2 3.2-2.4 2.7l-.3-.4c.7-.1 2.7-.9 1.6-1.7-.5-.4-1.3-.1-2.4.6.4-.7.5-1.3.3-1.9-3.7 1.6-8.3 1.2-10.2-3.1-3.9-8.5 10.7-14.1 14.6-7.9M16.2 137.6l1.9 4.2c-2.4 3-.2 7.9 3.9 6.8 3.5-1 1.9-7.1-1.1-7.3l-2.1-4.7c7.4-1.7 13.6 12.5 5.3 16.2-8.6 3.8-14.2-11.3-7.9-15.2m4-29.6l-12.3-1.4.5-6.7 7.2-2.1-6.4-3 .5-6.8 12.1 1.6-.2 3.6-8.6-.7 8.2 4.2-.3 3.4-9.5 2.6 9 1.2-.2 4.1zm178.6 3.9l12.2 1.7-.6 6.7-7.2 2 6.3 3.1-.6 6.8-12.1-1.9.3-3.6 8.6.9-8.1-4.4.3-3.4 9.5-2.4-9-1.4.4-4.1zM16.4 74.4l2.9 1.2 1.4-3.2c1-2.3-2-3-2.9-1.2l-1.4 3.2zm-4.1 3.5L23.7 83l2.1-4-4.4-2.4 2.2-4.5c3.3-6.7-5.4-8.7-7.6-3.2l-3.7 9zm189.2 66.7l-3-1.2-1.4 3.2c-1 2.3 2.1 3 2.9 1.2l1.5-3.2zm4.1-3.5l-11.5-5-2.1 4 4.4 2.4-2.2 4.5c-3.2 6.7 5.4 8.6 7.6 3.2l3.8-9.1zM22.1 57.5l2.9-3.8 5.8 4.5c2.2 1.7 5.7-3.2 4.1-4.4l-6.4-4.6 2.9-3.8 6.1 4.9c1.9 1.5 2.2 5 .8 6.8L35 61.4c-1.1 1.5-5.2 1.7-6.4.8l-6.5-4.7zm141-34.3L167 26l-4.4 5.9c-1.6 2.2 3.3 5.7 4.5 4l4.5-6.5 3.9 2.8-4.7 6.2c-1.5 1.9-5 2.4-6.8 1l-4.3-3.2c-1.5-1.1-1.9-5.2-1-6.4l4.4-6.6zM94.9 5.7c.7-1.1 1.6-1.5 2.9-1.6 1.4-.2 1.7.6 2.8.8.8.2 1.8-.3 2.6-.8.3-.2.7 0 .5.5-.2 1.3-1 2-1.9 2.1-1.3.2-2.1-.9-3.5-.9-1 0-1.6.1-2.6.9-.8.5-1.2-.5-.8-1M34.7 40.5l10.4-10 2.2 2.3-3.7 3.5 7 6.6-3.3 3.1-6.8-6.4-3.4 3.4-2.4-2.5zM196 56.9l-11 7.3 2.8 3.9 11-7-2.8-4.2zm-23.9-10.5l10-8.6 3.9 5-2 8.4 5.6-5 2.9 3.4-10 8.7-3.9-4.4 2.1-9.1-5.7 5-2.9-3.4zm-63.7 170.5c59.9 0 108.4-48.5 108.4-108.4C216.9 48.5 168.3 0 108.4 0 48.5 0 0 48.5 0 108.4c0 59.9 48.5 108.5 108.4 108.5"/></svg>