<?xml version="1.0" encoding="utf-8"?>
<!-- Generator: Adobe Illustrator 19.0.0, SVG Export Plug-In . SVG Version: 6.00 Build 0)  -->
<svg version="1.1" id="Layer_1" xmlns="http://www.w3.org/2000/svg" xmlns:xlink="http://www.w3.org/1999/xlink" x="0px" y="0px"
	 viewBox="0 0 216.9 216.9" style="enable-background:new 0 0 216.9 216.9;" xml:space="preserve">
<style type="text/css">
	.st0{fill-rule:evenodd;clip-rule:evenodd;fill:#FFFFFF;}
</style>
<path class="st0" d="M32.7,169.6c1.7,0,3-1.3,3-3s-1.3-3-3-3c-1.7,0-3,1.3-3,3S31,169.6,32.7,169.6 M186.2,168.7c1.7,0,3-1.3,3-3
	s-1.3-3-3-3c-1.7,0-3,1.3-3,3S184.6,168.7,186.2,168.7 M144.4,24.3c1.7,0,3-1.3,3-3s-1.3-3-3-3s-3,1.3-3,3S142.7,24.3,144.4,24.3
	 M69.3,68.2c-23.6,6.6-36,23.6-31.6,56.3c-2.2,1.6-2.9,4.4-1,7.5c0.5,0.7,0.8,1.2,1.1,1.8c7.4,16.8,22.5,25.4,44.5,27.6
	c-0.5-5.6,7.2-10.8,23.6-13c8.8-1.1,16.5-4,30,4.7c9.3,6.1,18.4,12.1,27.6,17.4c-14.6,12.8-33.8,20.6-54.9,20.6
	c-45.9,0-83.1-37-83.1-82.7s37.2-82.7,83.1-82.7c24.7,0,46.9,10.7,62.1,27.8c-6.1,5.7-14.3,9.7-23.7,13.2
	c-11.5,4.3-20.6,7.3-26.8,7.8c2.3-5.6,3.7-11.7,4.5-18c-12.1-9.8-22.9-8.6-32.5,1.5c7.9,4.5,12,10.7,13.9,17.7
	c-17.1,6.8-28.2,15.9-33.2,27.3c-1.5,0.2-2.4,0.1-4.2-0.7c-1.8,1.8-2.7,4.3-3.2,7c-1.7-0.7-3.1-2.1-4.3-4.2c-0.8,0.6-1.5,1.2-2.1,2
	C51.1,89.3,57.5,77.6,69.3,68.2 M74.1,115.5l1-2.4c5.6,0,9.9-2.9,12.4-9.6c5.3-0.5,10.5-2.7,15.6-6.4c0.2,0.7,0.2,1.4-0.1,2.3
	c1.9-0.1,4.8,0.7,6,2.2c-3.6,1.3-6.6,3.4-9.2,5.8c-3.3,3-7.2,5.1-11.3,6.9c0.6,0.3,1.4,1.4,1.7,2.6C85,116,79.7,115.4,74.1,115.5
	 M82.3,113.4c1.9-1.7,2.9-3.2,4-3.7c0.5-0.2,4-0.9,6.6-1.1c-1.9,2.6-3.7,4.2-5.4,4.5C85.7,113.4,84,113.5,82.3,113.4 M52.2,118.3
	c-2.7-2.8-4.1-6.8-5.1-11.2c-1.6,3.6,0,9.7,2.4,13.6L52.2,118.3z M57.3,115.8c1.9-1.4,2.8-3.4,3.2-5.1c0.6,0.7,0.9,1.1,1.3,2
	c0.5,1.1,1.5,1.2,2.8,0.7c2.5-1,4.2,0.8,2.5,5.9C65.1,115.9,62.4,114.6,57.3,115.8 M59.7,119c-1-0.4-1.1,0.8-0.5,1.5
	c0.7,0.6,1.9,0.8,1.9,0.2C61.2,120,60.5,119.4,59.7,119 M84.3,102.6c3.1-4.6,6.8-9.7,11.3-14.3c2.8-2.8,5.3-3.9,7.5-1.6
	c1.5,1.5,2.9,3.6,3.7,5.5c-2.3-2.1-5.2-2.7-8.5,0.1C94,95.9,89.1,99.5,84.3,102.6 M159.3,91.4c2.9-4.5,5.5-7.1,11.5-11.1
	c3.7-2.5,8.5-7.3,11.4-10.5c3.1,5.3,5.3,11.3,7,17.8C177.4,87.4,166.8,88.2,159.3,91.4 M166.5,111c9.2-0.3,17.7-1.6,25.3-4.3
	c0.2,2.6,0.1,5.2-0.4,7.8C182.6,116.2,175.4,115.7,166.5,111 M160.5,126.7c11.3,5.8,19.8,4.6,28.4,1.7c-0.9,4.3-2,8-3.3,11.2
	C170,140.9,164.2,136.3,160.5,126.7 M43.2,123c-6.7-25.5-0.1-35.8,14.3-47.8c-17.1,9.8-21.5,27.4-18.3,49.7
	c-1.9,1.6-2.5,3.8-0.7,6.5c0.5,0.8,0.8,1.9,1.4,3.3c5.9,13.8,21,23,41.3,25.1c0.8-8.5,17.4-11.8,26.1-13.2c12.3-1.9,19-1.4,27.6,4.2
	c9.8,6.4,21.5,14.6,29.8,18.7l5.9-5.8c-14.2-7-24.7-14.4-31.3-22.4c-0.9-1.1-1-2.2-0.6-3.6c1.7-6.2,2.3-12.7,2-19.5
	c-0.9-16.1-4.8-22.7-14-24.6c7.1,6.2,11,13.2,10.5,20.8c-0.6,7.8-3.5,15.3-8.1,22.4c-0.7,1.2-3.8,2.5-5.2,2.9
	c-10.9,2.8-18.6,3.9-28.8,5.1c1.9-2.8,3.1-5.5,3.9-8.3c-9.8,9.3-18.2,14.6-19,22.6c-10.5,0.5-24.8-7.9-33.6-18.2
	c-5.1-6-6-11.4-3.3-16.2C43.7,124,43.4,123.6,43.2,123 M66.8,111.2c0.1-2.3,0.8-4.5,2.2-6.8c2,0.3,4.5,1.6,6.6-2.8
	c4.1-8.6,13-17,32.6-25c-1.7-7.5-5.5-14-13.3-18.8c8.7-7.8,18-8.5,28.1-0.4c-1,6.6-2.7,12.9-5.1,18.8c15.3-1,48.3-13.7,53.8-21.5
	c1.5,1.2,2.7,2.6,3.6,4.1c-7.9,4.7-17.7,9.4-29.2,13.1c-14.8,4.7-25.1,6.6-29.2,6.3c2.5-7.3,4.2-13.7,3.1-17.9c-0.9-3.3-4.4-5-8-5.7
	c-3.9-0.7-9.3-0.6-14.9,2.6c10.1,3.5,13.6,9,12,22.2C88.5,85.4,79.7,95.6,76.9,108c-2.5-0.1-4.8-0.5-6.8-1.5
	C69,107.3,67.9,108.8,66.8,111.2 M53.4,189.7l3.2,2l0.7-4.8L53.4,189.7z M45.9,190.2l10.8-8.2l5.4,3.3l-2,13.9l-4.2-2.7l0.1-1.6
	l-4.8-3l-1.5,1.3L45.9,190.2z M73.5,199.7l3.5,1.4l-0.2-4.8L73.5,199.7z M66.2,201.5l9.2-10l5.9,2.3l0.5,14l-4.6-1.9l-0.2-1.6
	l-5.2-2.1l-1.2,1.6L66.2,201.5z M95.4,206.2l3.7,0.5l-1.4-4.6L95.4,206.2z M88.8,209.8l6.4-12l6.3,0.7l4,13.4l-4.9-0.7l-0.6-1.5
	l-5.6-0.7l-0.8,1.8L88.8,209.8z M202.2,97.2l0.4,3.7l4.1-2.4L202.2,97.2z M197.2,91.6l13.2,3.4l0.8,6.3l-12.1,7l-0.4-4.9l1.3-0.9
	l-0.6-5.6l-1.9-0.3L197.2,91.6z M97.9,16.8l3.7-0.2l-2.2-4.3L97.9,16.8z M92.1,21.4l4.1-13l6.3-0.4l6.4,12.5l-5,0.2l-0.9-1.3
	l-5.6,0.3L97,21.6L92.1,21.4z M58.3,31.3l3.1-2l-4-2.6L58.3,31.3z M55.6,38.2l-2.8-13.3l5.3-3.5l11.7,7.8l-4.2,2.6L64.1,31l-4.7,3
	l0.6,1.9L55.6,38.2z M17.9,122.3c0.2,2-1.1,3.8-2.9,4c-1.8,0.2-3.4-1.4-3.6-3.4c-0.2-2,1.1-3.8,2.9-4
	C16.1,118.8,17.7,120.3,17.9,122.3 M21.8,122.1c0.5,5-2.4,9.4-6.5,9.7c-4,0.4-7.7-3.4-8.1-8.4c-0.5-5,2.4-9.4,6.5-9.7
	C17.7,113.3,21.3,117.1,21.8,122.1 M121.2,11.4c2,0,3.7,1.4,3.7,3.2c0,1.8-1.7,3.2-3.7,3.2c-2,0-3.7-1.4-3.7-3.2
	C117.5,12.8,119.2,11.4,121.2,11.4 M121.3,7.5c5,0,9.1,3.3,9.1,7.3s-4.1,7.3-9.1,7.3c-5,0-9.1-3.3-9.1-7.3S116.3,7.5,121.3,7.5
	 M132.7,195l4.3,12.5l13.3-4.6l-1.1-2.9l-8.4,2.9l-0.7-2.1l6.4-2.2l-0.9-2.4l-6.3,2.2l-0.9-2.6l8.2-2.6l0.2,0.4l-1.1-2.9L132.7,195z
	 M167.2,184.6l-4,2.2c-3.1-2.1-7.7,0.3-6.4,4.3c1.2,3.4,7.1,1.5,7.1-1.5l4.5-2.3c2.1,7.2-11.4,14.1-15.5,6.2
	C148.5,185.1,163,178.7,167.2,184.6 M127.3,201.5l-4.6,0.7c-2.2-3.1-7.5-2.4-7.6,1.9c-0.1,3.7,6.3,3.9,7.3,1l5.1-0.7
	c-0.5,7.6-15.8,9.6-17,0.6C109.3,195.6,125.3,194.4,127.3,201.5 M203.4,85.6l-1.7-4.2c2.5-2.7,0.7-7.6-3.5-6.8
	c-3.6,0.7-2.4,6.8,0.7,7.2l1.8,4.7c-7.5,1.2-12.8-12.9-4.3-16C205.3,67.2,210,82.2,203.4,85.6 M85.4,14.2l-4.1,1.9
	c-2.9-2.4-7.6-0.2-6.5,3.9c0.9,3.5,6.9,1.9,7.1-1.1l4.5-2.1c0.7,3.2-1.5,6.2-4.5,7.9v0l0,0.5l0,0.4c1.1-0.2,1.8-0.1,2.3,0.3
	c1.2,1.2-2,3.2-2.4,2.7l-0.3-0.4c0.7-0.1,2.7-0.9,1.6-1.7c-0.5-0.4-1.3-0.1-2.4,0.6c0.4-0.7,0.5-1.3,0.3-1.9v0
	c-3.7,1.6-8.3,1.2-10.2-3.1C66.9,13.6,81.5,8,85.4,14.2 M16.2,137.6l1.9,4.2c-2.4,3-0.2,7.9,3.9,6.8c3.5-1,1.9-7.1-1.1-7.3l-2.1-4.7
	c7.4-1.7,13.6,12.5,5.3,16.2C15.5,156.6,9.9,141.5,16.2,137.6 M20.2,108l-12.3-1.4l0.5-6.7l7.2-2.1l-6.4-3l0.5-6.8l12.1,1.6
	l-0.2,3.6l-8.6-0.7l8.2,4.2l-0.3,3.4l-9.5,2.6l9,1.2L20.2,108z M198.8,111.9l12.2,1.7l-0.6,6.7l-7.2,2l6.3,3.1l-0.6,6.8l-12.1-1.9
	l0.3-3.6l8.6,0.9l-8.1-4.4l0.3-3.4l9.5-2.4l-9-1.4L198.8,111.9z M16.4,74.4l2.9,1.2l1.4-3.2c1-2.3-2-3-2.9-1.2L16.4,74.4z
	 M12.3,77.9L23.7,83l2.1-4l-4.4-2.4l2.2-4.5c3.3-6.7-5.4-8.7-7.6-3.2L12.3,77.9z M201.5,144.6l-3-1.2l-1.4,3.2c-1,2.3,2.1,3,2.9,1.2
	L201.5,144.6z M205.6,141.1l-11.5-5l-2.1,4l4.4,2.4l-2.2,4.5c-3.2,6.7,5.4,8.6,7.6,3.2L205.6,141.1z M22.1,57.5l2.9-3.8l5.8,4.5
	c2.2,1.7,5.7-3.2,4.1-4.4l-6.4-4.6l2.9-3.8l6.1,4.9c1.9,1.5,2.2,5,0.8,6.8L35,61.4c-1.1,1.5-5.2,1.7-6.4,0.8L22.1,57.5z M163.1,23.2
	L167,26l-4.4,5.9c-1.6,2.2,3.3,5.7,4.5,4l4.5-6.5l3.9,2.8l-4.7,6.2c-1.5,1.9-5,2.4-6.8,1l-4.3-3.2c-1.5-1.1-1.9-5.2-1-6.4
	L163.1,23.2z M94.9,5.7c0.7-1.1,1.6-1.5,2.9-1.6c1.4-0.2,1.7,0.6,2.8,0.8c0.8,0.2,1.8-0.3,2.6-0.8c0.3-0.2,0.7,0,0.5,0.5
	c-0.2,1.3-1,2-1.9,2.1c-1.3,0.2-2.1-0.9-3.5-0.9c-1,0-1.6,0.1-2.6,0.9C94.9,7.2,94.5,6.2,94.9,5.7 M34.7,40.5l10.4-10l2.2,2.3
	l-3.7,3.5l7,6.6L47.3,46l-6.8-6.4L37.1,43L34.7,40.5z M196,56.9L185,64.2l2.8,3.9l11-7L196,56.9z M172.1,46.4l10-8.6l3.9,5l-2,8.4
	l5.6-5l2.9,3.4l-10,8.7l-3.9-4.4l2.1-9.1l-5.7,5L172.1,46.4z M108.4,216.9c59.9,0,108.4-48.5,108.4-108.4
	C216.9,48.5,168.3,0,108.4,0C48.5,0,0,48.5,0,108.4C0,168.3,48.5,216.9,108.4,216.9"/>
</svg>
