<svg id="Camada_1" xmlns="http://www.w3.org/2000/svg" viewBox="0 0 315 137.7"><style>.st0{fill:#99BF19;}</style><path class="st0" d="M86.7 30.7h-8.2c-6.9 0-11.8 1.8-14.8 5.3-3 3.6-4.5 9.2-4.5 16.8V87c0 .5.2.9.5 1.2.4.3.8.5 1.2.5h5.6c.5 0 .9-.2 1.2-.5.4-.4.5-.8.5-1.2V52.9c0-4.1.7-7.3 2-9.6s4.1-3.4 8.2-3.4h8.2c.2-.2.5-.4.8-.6.6-.5.9-.9.9-1.3v-5.5c0-.5-.2-.9-.5-1.2-.3-.4-.7-.6-1.1-.6M115 79.6h-1.4c-3 0-5.2-.9-6.6-2.8-1.4-1.9-2.1-5.3-2.1-10.2V32.5c0-.5-.2-.9-.5-1.2-.4-.4-.8-.5-1.2-.5h-5.6c-.5 0-.9.2-1.2.5-.4.4-.5.8-.5 1.2v34.1c0 3.9.3 7.2 1 10 .6 2.8 1.7 5 3.2 6.9 1.5 1.8 3.5 3.2 5.9 4 2.5.9 5.5 1.3 9.2 1.3.5 0 .9-.2 1.2-.5.4-.4.5-.8.5-1.2v-5.6c0-.5-.2-.9-.5-1.3-.5-.4-.9-.6-1.4-.6m-4.7-69.3C110.3 4.6 105.7 0 100 0c-5.7 0-10.3 4.6-10.3 10.3 0 5.7 4.6 10.3 10.3 10.3 5.7-.1 10.3-4.7 10.3-10.3m150.4 69.3h-1.4c-3 0-5.2-.9-6.6-2.8-1.4-1.9-2.1-5.3-2.1-10.2V12c0-.5-.2-.9-.5-1.2-.4-.4-.8-.5-1.3-.5h-5.6c-.5 0-.9.2-1.2.5-.4.4-.5.8-.5 1.2v54.6c0 3.6.3 6.7.9 9.5.6 2.8 1.7 5.1 3.2 6.9 1.5 1.9 3.5 3.3 5.9 4.3 2.4 1 5.5 1.5 9.2 1.5.5 0 .9-.2 1.2-.5.4-.4.5-.8.5-1.2v-5.6c0-.5-.2-.9-.5-1.3s-.8-.6-1.2-.6m-94.1-44.2c-4.3-3.6-10.4-5.3-18.3-5.3-8.1 0-13.8 1.3-17.2 4-3.4 2.7-5.2 6.8-5.2 12.3 0 .6.2 1 .5 1.4.4.4.8.5 1.2.5h5.6c.5 0 .9-.2 1.2-.5.4-.4.5-.8.5-1.4 0-3 1.1-5 3.2-5.9 2.1-.9 5.5-1.4 10.1-1.4 5.2 0 9.1.9 11.7 2.8 2.6 1.9 3.9 4.3 3.9 7.3v7.1c-2-1.7-4.4-3-7.3-3.8-2.9-.8-5.8-1.2-8.8-1.2-4.7 0-8.7.4-12 1.2-3.2.8-5.8 2-7.8 3.5s-3.4 3.5-4.3 5.8c-.9 2.3-1.3 5-1.3 8.1 0 3.6.4 6.6 1.2 9.1.8 2.5 2.2 4.5 4.2 6.1 2 1.5 4.6 2.7 7.8 3.4 3.2.7 7.3 1.1 12.1 1.1 4.6 0 8.5-.4 11.7-1.2 3.2-.8 5.8-2.2 7.8-4 2-1.9 3.5-4.2 4.4-7.1.9-2.9 1.4-6.4 1.4-10.5V49.3c.2-5.7-2-10.3-6.3-13.9M163.2 74c-.5 1.5-1.3 2.7-2.6 3.6-1.2.9-2.9 1.6-5 2.1-2.1.4-4.7.7-7.9.7-3.3 0-6-.2-8.1-.7-2.1-.5-3.8-1.1-5-2-1.2-.9-2.1-2-2.5-3.3-.4-1.3-.7-2.8-.7-4.4 0-1.5.3-2.9.8-4.1.5-1.3 1.4-2.4 2.6-3.3 1.2-.9 2.9-1.6 5-2.1s4.7-.8 7.9-.8c6.2 0 10.4.8 12.7 2.5 2.3 1.7 3.4 3.9 3.4 6.6.1 2-.1 3.7-.6 5.2m149.9-4.3h-5.5c-1.2 0-1.8.6-1.8 1.8 0 5.9-5.2 8.8-15.7 8.8-6 0-10.2-1.3-12.4-3.8-2.3-2.4-3.5-7.3-3.7-14.5 3.4 2.3 8.8 3.4 16.1 3.4 16.6 0 24.8-5.8 24.8-17.3C315 36 306.7 30 290.2 30c-8.7 0-15 2.1-19 6.3-4.2 4.7-6.3 12.5-6.3 23.4 0 11.4 2 19.3 5.9 23.7 3.6 4 10.1 6 19.3 6 16.4 0 24.7-6 24.7-17.9.1-1.2-.5-1.8-1.7-1.8m-38.6-19c.3-4.1 1.7-7.1 4.3-8.9 2.4-1.8 6.2-2.7 11.3-2.7 10.6 0 15.8 3 15.8 9 0 5.5-5.3 8.2-15.8 8.2-10.8 0-16-1.9-15.6-5.6m-44-20H225c-.5 0-.9.2-1.3.5-.4.4-.5.8-.5 1.2V60c0 3.2-.2 6-.6 8.5-.4 2.5-1.2 4.7-2.3 6.4-1.1 1.7-2.8 3.1-4.9 4-2.1.9-4.9 1.4-8.4 1.4-3.4 0-6.2-.4-8.3-1.2-2.1-.8-3.8-2-5-3.7-1.2-1.7-2-3.8-2.4-6.4-.4-2.6-.6-5.8-.6-9.5v-27c0-.5-.2-.9-.5-1.2-.4-.4-.8-.5-1.3-.5h-5.5c-.6 0-1 .2-1.4.5-.4.4-.5.8-.5 1.2v27.1c0 5.4.4 9.9 1.3 13.7.9 3.8 2.3 6.9 4.3 9.3 2 2.4 4.6 4.2 7.8 5.3 3.2 1.1 7.2 1.7 11.9 1.7 9 0 15.5-2.3 19.4-7 3.9-4.7 5.9-12.1 5.9-22.3V32.5c0-.5-.2-.9-.5-1.2-.1-.4-.5-.6-1.1-.6m-218.2 44c1.1-1 2.5-1.7 4.1-2.2 1.6-.5 3.3-.7 5-.8 1.7-.1 3.3-.1 4.6-.1 3.9 0 7.4-.3 10.4-.9 3.1-.6 5.6-1.7 7.8-3.3 2.1-1.6 3.8-3.7 4.9-6.5 1.1-2.7 1.7-6.2 1.7-10.4s-.6-7.6-1.8-10.3c-1.2-2.6-3-4.7-5.2-6.2s-4.9-2.5-8-3.1c-3.1-.6-6.6-.8-10.4-.8-3.6 0-7 .3-10.2.9-3.1.6-5.8 1.7-8.1 3.2-2.3 1.5-4 3.7-5.3 6.3-1.3 2.7-2 6.1-2 10.2 0 3.8.8 7.3 2.4 10.4 1.6 3.2 4.1 5.6 7.7 7.5-2.6.5-4.8 1.8-6.5 3.6C1.7 74.1.8 76.3.8 78.8c0 2.2.3 4.1.8 5.6s1.3 2.8 2.4 3.8c1.1 1 2.5 1.9 4.3 2.5 1.7.7 3.9 1.2 6.4 1.7 2.6.5 5.3.9 8.2 1.3 2.9.4 5.5.8 8 1.4 2.5.6 4.5 1.4 6 2.5 1.6 1.1 2.3 2.2 2.4 4.2 0 .6 0 .8.5 1.3.4.3.9.4 1.3.4h5.8c.5 0 .9-.2 1.3-.6.4-.4.6-.8.6-1.3 0-4.6-1-7.5-3-9.8-2-2.3-5.3-4-10.1-4.9-3.4-.7-6.6-1.2-9.7-1.6-3-.4-5.7-.8-8.1-1.2-2.3-.5-4.2-1.1-5.6-1.8-1.4-.7-2.1-1.9-2.1-3.4.5-1.8 1-3.2 2.1-4.2m-2.2-18.3c-.7-1.6-1-3.5-1-5.9 0-2.6.5-4.6 1.4-6.1.9-1.5 2.1-2.6 3.6-3.4 1.5-.8 3.2-1.3 5.2-1.5h.2c2-.2 4-.3 6.2-.3 2.3 0 4.5.1 6.5.2 2 .2 3.8.6 5.2 1.4 1.5.7 2.6 1.9 3.4 3.4.8 1.5 1.2 3.6 1.2 6.3 0 2.8-.4 4.9-1.2 6.5-.8 1.6-1.9 2.8-3.3 3.6-1.4.8-3.2 1.3-5.2 1.5H32c-2 .2-4.2.3-6.6.3-2.8 0-5.2-.2-7.2-.5s-3.7-1-5.1-1.8c-1.3-.9-2.3-2.1-3-3.7m27.3 81.3v-1.3h9.5c1.6 0 2.8-.8 3.1-2.2.2-.8.1-1.7.1-2.7h-8.4c-2 0-3.7-1.3-4.1-3.3-.1-.3-.1-.7-.1-1V118c0-2.4 1.5-3.9 3.9-3.9h6.5c2.4 0 3.5 1.2 3.5 3.5V134c0 1.8-1 3.1-2.8 3.5-.4.1-.9.1-1.3.1h-9.9zm12.7-14.8v-4.8c-.1-1.6-1.1-2.6-2.7-2.6h-5.5c-1.9 0-3.1 1.2-3.1 3v8.5c0 1.4.9 3.1 3.1 3.1h8.2v-7.2m162.9-6.2c.3-.5.6-.9.8-1.3.5-.8 1.3-1.2 2.2-1.2h4.4c1.4 0 2.5 1.2 2.7 2.9 0 .4.1.8.1 1.2v12.5c0 .9 0 .7-.8.8h-.6v-13.1c0-1.6-.8-2.6-2.4-2.7-1-.1-2.1-.1-3.1 0-1.2.1-2.1 1-2.2 2.5v13.3h-1.3v-12.9c0-1.7-1-2.8-2.7-2.9-1-.1-2.1-.1-3.1 0-1.7.1-2.5.9-2.5 2.6v13.2h-1.3c0-.1-.1-.2-.1-.3v-13.6c0-1.7.8-2.8 2.2-3.2.2-.1.5-.1.7-.1h3.7c1.3 0 2.3.4 2.8 1.6.1.1.3.3.5.7m-130.5-8.8h1.3V127c0 1.4-.5 2.6-1.5 3.5-.8.7-1.6 1-2.6 1H74c-2.5 0-4.1-1.6-4.1-4.1v-9.5c0-2.2 1.4-3.6 3.5-3.6 2.8-.1 5.6 0 8.3 0 .7 0 .7 0 .7-.8v-4.9c.1-.3.1-.5.1-.7m-11.2 14.9v4.6c.1 1.7 1 2.8 2.8 2.8 1.8-.1 3.6 0 5.4 0 1.7 0 3.1-1.3 3.1-3v-11.6h-8.4c-1.9 0-2.9 1-2.9 2.9v4.3m-62.4-15h1.3v5.8c0 .4.1.6.6.6h7.8c.5 0 1.1 0 1.6.2 1.6.4 2.6 1.6 2.6 3.6.1 3.1 0 6.2 0 9.2 0 .4 0 .7-.1 1.1-.3 1.8-2 3.2-3.8 3.2h-6.2c-2 0-3.8-2-3.8-4.2v-19.5m12.6 15v-4.2c0-2.1-1-3.1-3-3.1h-8.3V127c0 1.9 1.3 3.2 3.2 3.2h5.2c1.8 0 2.9-1.1 2.9-2.9v-4.5m131.8-14.9h1.3v5.7c0 .7 0 .7.7.7h7.7c.4 0 .7 0 1.1.1 2.1.4 3.1 1.6 3.2 3.9v9.5c0 2.1-1.8 3.7-3.9 3.8h-6.1c-2.1 0-3.8-2.3-3.8-3.8v-19.9zm1.4 14.7v4.4c0 1.8 1.3 3.1 3.1 3.1h5.7c.8 0 1.4-.3 1.8-.9.5-.6.7-1.3.7-2v-8.5c0-2.1-1-3.1-3.1-3.1-1.8 0-6.3-.1-8.1-.1-.1 0-.1 5.7-.1 7.1m-51.5-2.6c0-.9.1-1.7 0-2.5-.1-1.2-1-2-2.3-2H91c-.5 0-.6-.2-.6-.6 0-.4-.1-.7.6-.7h10.1c1.9 0 2.9.8 3.3 2.4.1.2.1.4.1.6v10.2c0 2.2-1.8 4-4 4h-5.8c-2.4 0-4.3-1.9-4.3-4.2 0-1.4 0-2.7.2-4.1.3-2.1 1.7-3.2 3.8-3.2h8.8zm-5.9 10.2s2.2-.1 3.3-.1c1.7-.1 2.7-1.2 2.7-2.8v-5.7s-6.6-.2-8.9-.1c-1.5.1-2.5 1.3-2.5 2.6v3.6c0 1.2.8 2.2 2 2.4 1.1.1 2.2 0 3.4.1M133 120c0-.9.1-1.7 0-2.5-.1-1.2-1-2-2.3-2h-9.9c-.5 0-.6-.2-.6-.6 0-.4-.1-.7.6-.7h10.1c1.9 0 2.9.8 3.3 2.4.1.2.1.4.1.6v10.2c0 2.2-1.8 4-4 4h-5.8c-2.4 0-4.3-1.9-4.3-4.2 0-1.4 0-2.7.2-4.1.3-2.1 1.7-3.2 3.8-3.2h8.8zm-5.9 10.2s2.2-.1 3.3-.1c1.7-.1 2.7-1.2 2.7-2.8v-5.7s-6.6-.2-8.9-.1c-1.5.1-2.5 1.3-2.5 2.6v3.6c0 1.2.8 2.2 2 2.4 1.1.1 2.2 0 3.4.1m116.7 1.3h-9.5c-.5 0-1 0-1.5-.1-1.8-.4-3.1-1.9-3.1-3.8v-9c0-2.6 1.5-4.2 4.1-4.3 2-.1 4.1 0 6.1 0 2.2 0 3.5 1.4 3.6 3.6 0 .7.2 1.5-.1 2-.3.5-1.1.6-1.7.9-3.4 1.6-6.9 3.2-10.3 4.8-.3.2-.5.3-.4.7.1.8.1 1.6.3 2.3.3 1 1 1.6 2.1 1.6 1.1.1 2.2 0 3.4.1h6.2c.8 0 .8 0 .8.8v.4m-12.7-7.3c.6-.3 1-.5 1.5-.7 3.1-1.4 6.1-2.9 9.2-4.3.2-.1.4-.2.4-.4.5-1.8-.6-3.2-2.5-3.3h-5.8c-1.5 0-2.7.9-2.8 2.4-.1 1.6-.1 3.3-.1 5 .1.4.1.8.1 1.3m-34.9-1.5v5c0 1.9-1.4 3.5-3.3 3.7-.5.1-.9.1-1.4.1-2.1 0-4.2 0-6.2-.1-1.4-.1-2.4-.9-2.9-2.4-.3-.9-.4-1.9-.4-2.8v-8.5c0-2.2 1.3-3.4 3.4-3.5 2.4-.1 4.8-.1 7.2 0 1.6 0 3.1.9 3.4 2.5.1.3.1.6.1.9.1 1.8.1 3.4.1 5.1m-1.4.2v-4.4c0-1.8-1.2-2.9-2.9-2.9h-5.6c-1.8 0-3 1.2-3 3v8.3c0 2 1.2 3.2 3.3 3.2h5c2.1 0 3.2-1.1 3.3-3.3 0-1.3-.1-2.6-.1-3.9m111.2-8.6v1.3h-8.5c-1.6 0-2.5.9-2.5 2.5v1.1c0 1.6 1 2.6 2.6 2.6s3.2.1 4.7 0c1.9-.1 3.8 1.4 3.7 3.7-.1 1.2 0 2.4-.1 3.5-.2 1.5-1.6 2.6-3.1 2.6h-9.2v-1c0-.1.2-.3.4-.3h1.9c2 0 4-.1 6 0 1.6.1 2.6-.9 2.7-2.4 0-.7.1-1.5 0-2.3-.2-1.6-1.1-2.4-2.7-2.4h-4.7c-.6 0-1.3-.2-1.9-.4-1.1-.5-1.7-1.4-1.7-2.6 0-1.2 0-2.4.1-3.6.2-1.3 1.3-2.2 2.6-2.3h9.4c.1-.1.2 0 .3 0m-18.4 0v1.3h-6.3c-2 0-3.2 1.2-3.2 3.2v8.2c0 1.9 1.4 3.2 3.2 3.2h5.6c.2 0 .6.1.6.2.1.4 0 .7 0 1.1 0 0-.2.1-.3.1-2.3 0-4.6.1-6.8-.1-2.3-.2-3.7-1.9-3.7-4.1v-9.2c0-.5 0-.9.1-1.4.3-1.5 1.4-2.4 3.2-2.5 2.4-.1 4.8 0 7.2 0 .3-.1.3 0 .4 0m-33.3 1.2h-3.2v15c0 1.1.1.9-1 .9h-.4v-23.6l.1-.1c1.5 0 1.2-.2 1.2 1.1v4.5c0 .8 0 .8.8.8h2.5v1.4zm-138.4-1.3v1.3h-3.2v15.2c0 .2 0 .6-.1.7-.3.1-.7.1-1 0-.1 0-.1-.1-.1-.2v-22.7c0-.2 0-.6.1-.7.3-.1.7-.1 1 0 .1 0 .2.3.2.5v5.1c0 .7 0 .7.7.7.7.1 1.5.1 2.4.1m147.8 0v1.3c-.4 0-.8.1-1.2.1-1.3.3-2 1-2.1 2.3v12.8c0 .2 0 .6-.1.7-.3.1-.7 0-1 0 0 0-.1-.2-.1-.3v-13.6c0-.4 0-.7.1-1.1.3-1.5 1.1-2.2 2.7-2.3.4.1 1 .1 1.7.1M29.4 131.5v-17.2c.1 0 .1-.1.2-.1 1.4 0 1.2-.1 1.2 1.1v15.3c0 1.1.1.9-.9.9h-.5m240.8 0h-1.3v-17.2s0-.1.1-.1c1.2-.2 1.2-.2 1.2 1v16.3zm-94.9-8.6v8c0 .2-.1.6-.1.6-.3.1-.7 0-1 0-.1 0-.1-.3-.1-.4V115c0-.2 0-.6.1-.7.3-.1.7-.1 1 0 .1 0 .1.4.2.5v6.4c-.1.6-.1 1.2-.1 1.7m94.2-12.5c-.7 0-1.2-.5-1.2-1.3 0-.7.5-1.3 1.2-1.3s1.3.6 1.3 1.3c0 .7-.6 1.3-1.3 1.3m-240.7-1.3c0-.7.5-1.3 1.2-1.3s1.3.6 1.3 1.3c0 .7-.6 1.3-1.3 1.3-.7 0-1.2-.5-1.2-1.3m145.8-1.3c.7 0 1.3.6 1.3 1.3 0 .7-.6 1.3-1.2 1.3-.7 0-1.2-.5-1.2-1.3-.1-.7.4-1.3 1.1-1.3"/></svg>