<?xml version="1.0" encoding="utf-8"?>
<!-- Generator: Adobe Illustrator 19.0.0, SVG Export Plug-In . SVG Version: 6.00 Build 0)  -->
<svg version="1.1" id="Camada_1" xmlns="http://www.w3.org/2000/svg" xmlns:xlink="http://www.w3.org/1999/xlink" x="0px" y="0px"
	 viewBox="0 0 315 137.7" style="enable-background:new 0 0 315 137.7;" xml:space="preserve">
<style type="text/css">
	.st0{fill:#99BF19;}
</style>
<g>
	<path class="st0" d="M86.7,30.7h-8.2c-6.9,0-11.8,1.8-14.8,5.3c-3,3.6-4.5,9.2-4.5,16.8V87c0,0.5,0.2,0.9,0.5,1.2
		c0.4,0.3,0.8,0.5,1.2,0.5h5.6c0.5,0,0.9-0.2,1.2-0.5c0.4-0.4,0.5-0.8,0.5-1.2V52.9c0-4.1,0.7-7.3,2-9.6c1.3-2.3,4.1-3.4,8.2-3.4
		h8.2c0.2-0.2,0.5-0.4,0.8-0.6c0.6-0.5,0.9-0.9,0.9-1.3v-5.5c0-0.5-0.2-0.9-0.5-1.2C87.5,30.9,87.1,30.7,86.7,30.7"/>
	<path class="st0" d="M115,79.6h-1.4c-3,0-5.2-0.9-6.6-2.8c-1.4-1.9-2.1-5.3-2.1-10.2V32.5c0-0.5-0.2-0.9-0.5-1.2
		c-0.4-0.4-0.8-0.5-1.2-0.5h-5.6c-0.5,0-0.9,0.2-1.2,0.5c-0.4,0.4-0.5,0.8-0.5,1.2v34.1c0,3.9,0.3,7.2,1,10c0.6,2.8,1.7,5,3.2,6.9
		c1.5,1.8,3.5,3.2,5.9,4c2.5,0.9,5.5,1.3,9.2,1.3c0.5,0,0.9-0.2,1.2-0.5c0.4-0.4,0.5-0.8,0.5-1.2v-5.6c0-0.5-0.2-0.9-0.5-1.3
		C115.9,79.8,115.5,79.6,115,79.6"/>
	<path class="st0" d="M110.3,10.3C110.3,4.6,105.7,0,100,0c-5.7,0-10.3,4.6-10.3,10.3c0,5.7,4.6,10.3,10.3,10.3
		C105.7,20.5,110.3,15.9,110.3,10.3"/>
	<path class="st0" d="M260.7,79.6h-1.4c-3,0-5.2-0.9-6.6-2.8c-1.4-1.9-2.1-5.3-2.1-10.2V12c0-0.5-0.2-0.9-0.5-1.2
		c-0.4-0.4-0.8-0.5-1.3-0.5h-5.6c-0.5,0-0.9,0.2-1.2,0.5c-0.4,0.4-0.5,0.8-0.5,1.2v54.6c0,3.6,0.3,6.7,0.9,9.5
		c0.6,2.8,1.7,5.1,3.2,6.9c1.5,1.9,3.5,3.3,5.9,4.3c2.4,1,5.5,1.5,9.2,1.5c0.5,0,0.9-0.2,1.2-0.5c0.4-0.4,0.5-0.8,0.5-1.2v-5.6
		c0-0.5-0.2-0.9-0.5-1.3C261.6,79.8,261.1,79.6,260.7,79.6"/>
	<path class="st0" d="M166.6,35.4c-4.3-3.6-10.4-5.3-18.3-5.3c-8.1,0-13.8,1.3-17.2,4c-3.4,2.7-5.2,6.8-5.2,12.3
		c0,0.6,0.2,1,0.5,1.4c0.4,0.4,0.8,0.5,1.2,0.5h5.6c0.5,0,0.9-0.2,1.2-0.5c0.4-0.4,0.5-0.8,0.5-1.4c0-3,1.1-5,3.2-5.9
		c2.1-0.9,5.5-1.4,10.1-1.4c5.2,0,9.1,0.9,11.7,2.8c2.6,1.9,3.9,4.3,3.9,7.3v7.1c-2-1.7-4.4-3-7.3-3.8c-2.9-0.8-5.8-1.2-8.8-1.2
		c-4.7,0-8.7,0.4-12,1.2c-3.2,0.8-5.8,2-7.8,3.5c-2,1.5-3.4,3.5-4.3,5.8c-0.9,2.3-1.3,5-1.3,8.1c0,3.6,0.4,6.6,1.2,9.1
		c0.8,2.5,2.2,4.5,4.2,6.1c2,1.5,4.6,2.7,7.8,3.4c3.2,0.7,7.3,1.1,12.1,1.1c4.6,0,8.5-0.4,11.7-1.2c3.2-0.8,5.8-2.2,7.8-4
		c2-1.9,3.5-4.2,4.4-7.1c0.9-2.9,1.4-6.4,1.4-10.5V49.3C173.1,43.6,170.9,39,166.6,35.4 M163.2,74c-0.5,1.5-1.3,2.7-2.6,3.6
		c-1.2,0.9-2.9,1.6-5,2.1c-2.1,0.4-4.7,0.7-7.9,0.7c-3.3,0-6-0.2-8.1-0.7c-2.1-0.5-3.8-1.1-5-2c-1.2-0.9-2.1-2-2.5-3.3
		c-0.4-1.3-0.7-2.8-0.7-4.4c0-1.5,0.3-2.9,0.8-4.1c0.5-1.3,1.4-2.4,2.6-3.3c1.2-0.9,2.9-1.6,5-2.1c2.1-0.5,4.7-0.8,7.9-0.8
		c6.2,0,10.4,0.8,12.7,2.5c2.3,1.7,3.4,3.9,3.4,6.6C163.9,70.8,163.7,72.5,163.2,74"/>
	<path class="st0" d="M313.1,69.7h-5.5c-1.2,0-1.8,0.6-1.8,1.8c0,5.9-5.2,8.8-15.7,8.8c-6,0-10.2-1.3-12.4-3.8
		c-2.3-2.4-3.5-7.3-3.7-14.5c3.4,2.3,8.8,3.4,16.1,3.4c16.6,0,24.8-5.8,24.8-17.3C315,36,306.7,30,290.2,30c-8.7,0-15,2.1-19,6.3
		c-4.2,4.7-6.3,12.5-6.3,23.4c0,11.4,2,19.3,5.9,23.7c3.6,4,10.1,6,19.3,6c16.4,0,24.7-6,24.7-17.9
		C314.9,70.3,314.3,69.7,313.1,69.7 M274.5,50.7c0.3-4.1,1.7-7.1,4.3-8.9c2.4-1.8,6.2-2.7,11.3-2.7c10.6,0,15.8,3,15.8,9
		c0,5.5-5.3,8.2-15.8,8.2C279.3,56.3,274.1,54.4,274.5,50.7"/>
	<path class="st0" d="M230.5,30.7H225c-0.5,0-0.9,0.2-1.3,0.5c-0.4,0.4-0.5,0.8-0.5,1.2v27.6c0,3.2-0.2,6-0.6,8.5
		c-0.4,2.5-1.2,4.7-2.3,6.4c-1.1,1.7-2.8,3.1-4.9,4c-2.1,0.9-4.9,1.4-8.4,1.4c-3.4,0-6.2-0.4-8.3-1.2c-2.1-0.8-3.8-2-5-3.7
		c-1.2-1.7-2-3.8-2.4-6.4c-0.4-2.6-0.6-5.8-0.6-9.5V32.5c0-0.5-0.2-0.9-0.5-1.2c-0.4-0.4-0.8-0.5-1.3-0.5h-5.5c-0.6,0-1,0.2-1.4,0.5
		c-0.4,0.4-0.5,0.8-0.5,1.2v27.1c0,5.4,0.4,9.9,1.3,13.7c0.9,3.8,2.3,6.9,4.3,9.3c2,2.4,4.6,4.2,7.8,5.3c3.2,1.1,7.2,1.7,11.9,1.7
		c9,0,15.5-2.3,19.4-7c3.9-4.7,5.9-12.1,5.9-22.3V32.5c0-0.5-0.2-0.9-0.5-1.2C231.5,30.9,231.1,30.7,230.5,30.7"/>
	<path class="st0" d="M12.3,74.7c1.1-1,2.5-1.7,4.1-2.2c1.6-0.5,3.3-0.7,5-0.8c1.7-0.1,3.3-0.1,4.6-0.1c3.9,0,7.4-0.3,10.4-0.9
		c3.1-0.6,5.6-1.7,7.8-3.3c2.1-1.6,3.8-3.7,4.9-6.5c1.1-2.7,1.7-6.2,1.7-10.4c0-4.2-0.6-7.6-1.8-10.3c-1.2-2.6-3-4.7-5.2-6.2
		c-2.2-1.5-4.9-2.5-8-3.1c-3.1-0.6-6.6-0.8-10.4-0.8c-3.6,0-7,0.3-10.2,0.9c-3.1,0.6-5.8,1.7-8.1,3.2c-2.3,1.5-4,3.7-5.3,6.3
		c-1.3,2.7-2,6.1-2,10.2c0,3.8,0.8,7.3,2.4,10.4c1.6,3.2,4.1,5.6,7.7,7.5c-2.6,0.5-4.8,1.8-6.5,3.6c-1.7,1.9-2.6,4.1-2.6,6.6
		c0,2.2,0.3,4.1,0.8,5.6c0.5,1.5,1.3,2.8,2.4,3.8c1.1,1,2.5,1.9,4.3,2.5c1.7,0.7,3.9,1.2,6.4,1.7c2.6,0.5,5.3,0.9,8.2,1.3
		c2.9,0.4,5.5,0.8,8,1.4c2.5,0.6,4.5,1.4,6,2.5c1.6,1.1,2.3,2.2,2.4,4.2c0,0.6,0,0.8,0.5,1.3c0.4,0.3,0.9,0.4,1.3,0.4h5.8
		c0.5,0,0.9-0.2,1.3-0.6c0.4-0.4,0.6-0.8,0.6-1.3c0-4.6-1-7.5-3-9.8c-2-2.3-5.3-4-10.1-4.9c-3.4-0.7-6.6-1.2-9.7-1.6
		c-3-0.4-5.7-0.8-8.1-1.2c-2.3-0.5-4.2-1.1-5.6-1.8c-1.4-0.7-2.1-1.9-2.1-3.4C10.7,77.1,11.2,75.7,12.3,74.7 M10.1,56.4
		c-0.7-1.6-1-3.5-1-5.9c0-2.6,0.5-4.6,1.4-6.1c0.9-1.5,2.1-2.6,3.6-3.4c1.5-0.8,3.2-1.3,5.2-1.5c0,0,0.1,0,0.1,0c0.1,0,0.1,0,0.1,0
		c2-0.2,4-0.3,6.2-0.3c2.3,0,4.5,0.1,6.5,0.2c2,0.2,3.8,0.6,5.2,1.4c1.5,0.7,2.6,1.9,3.4,3.4c0.8,1.5,1.2,3.6,1.2,6.3
		c0,2.8-0.4,4.9-1.2,6.5c-0.8,1.6-1.9,2.8-3.3,3.6c-1.4,0.8-3.2,1.3-5.2,1.5c0,0-0.1,0-0.1,0c-0.1,0-0.1,0-0.2,0
		c-2,0.2-4.2,0.3-6.6,0.3c-2.8,0-5.2-0.2-7.2-0.5c-2-0.3-3.7-1-5.1-1.8C11.8,59.2,10.8,58,10.1,56.4"/>
	<path class="st0" d="M37.4,137.7v-1.3c0.2,0,0.4,0,0.6,0c3,0,5.9,0,8.9,0c1.6,0,2.8-0.8,3.1-2.2c0.2-0.8,0.1-1.7,0.1-2.7h-0.7
		c-2.6,0-5.1,0-7.7,0c-2,0-3.7-1.3-4.1-3.3c-0.1-0.3-0.1-0.7-0.1-1c0-3.1,0-6.1,0-9.2c0-2.4,1.5-3.9,3.9-3.9c2.2,0,4.3,0,6.5,0
		c2.4,0,3.5,1.2,3.5,3.5c0,5.5,0,10.9,0,16.4c0,1.8-1,3.1-2.8,3.5c-0.4,0.1-0.9,0.1-1.3,0.1c-3.1,0-6.2,0-9.3,0H37.4z M50.1,122.9
		C50.1,122.9,50.1,122.9,50.1,122.9c0-1.6,0-3.2,0-4.8c-0.1-1.6-1.1-2.6-2.7-2.6c-1.8,0-3.6,0-5.5,0c-1.9,0-3.1,1.2-3.1,3
		c0,2.8,0,5.7,0,8.5c0,1.4,0.9,3.1,3.1,3.1c1.9,0,3.8,0,5.7,0c1.3,0,2.5,0,2.5,0s0-1.1,0-2.3C50.1,126.2,50.1,124.5,50.1,122.9"/>
	<path class="st0" d="M213,116.7c0.3-0.5,0.6-0.9,0.8-1.3c0.5-0.8,1.3-1.2,2.2-1.2c1.5,0,2.9,0,4.4,0c1.4,0,2.5,1.2,2.7,2.9
		c0,0.4,0.1,0.8,0.1,1.2c0,4.2,0,8.3,0,12.5c0,0.9,0,0.7-0.8,0.8c-0.2,0-0.3,0-0.6,0v-0.6c0-4.2,0-8.4,0-12.5c0-1.6-0.8-2.6-2.4-2.7
		c-1-0.1-2.1-0.1-3.1,0c-1.2,0.1-2.1,1-2.2,2.5c0,0.2,0,0.5,0,0.7c0,4,0,8,0,12v0.6h-1.3c0-0.2,0-0.4,0-0.6c0-4.1,0-8.2,0-12.3
		c0-1.7-1-2.8-2.7-2.9c-1-0.1-2.1-0.1-3.1,0c-1.7,0.1-2.5,0.9-2.5,2.6c0,4.2,0,8.4,0,12.5c0,0.2,0,0.4,0,0.7h-1.3
		c0-0.1-0.1-0.2-0.1-0.3c0-4.5,0-9.1,0-13.6c0-1.7,0.8-2.8,2.2-3.2c0.2-0.1,0.5-0.1,0.7-0.1c1.2,0,2.5,0,3.7,0
		c1.3,0,2.3,0.4,2.8,1.6C212.6,116.1,212.8,116.3,213,116.7"/>
	<path class="st0" d="M82.5,107.9h1.3c0,0.2,0,0.4,0,0.5c0,6.2,0,12.4,0,18.6c0,1.4-0.5,2.6-1.5,3.5c-0.8,0.7-1.6,1-2.6,1
		c-1.9,0-3.8,0-5.7,0c-2.5,0-4.1-1.6-4.1-4.1c0-3.2,0-6.3,0-9.5c0-2.2,1.4-3.6,3.5-3.6c2.8-0.1,5.6,0,8.3,0c0.7,0,0.7,0,0.7-0.8
		c0-1.6,0-3.3,0-4.9C82.5,108.3,82.5,108.1,82.5,107.9 M71.3,122.8c0,1.5,0,3.1,0,4.6c0.1,1.7,1,2.8,2.8,2.8c1.8-0.1,3.6,0,5.4,0
		c1.7,0,3.1-1.3,3.1-3c0-2.9,0-5.9,0-8.8c0-0.9,0-2.8,0-2.8s-1.9,0-2.9,0c-1.8,0-3.6,0-5.5,0c-1.9,0-2.9,1-2.9,2.9
		C71.3,119.9,71.3,121.3,71.3,122.8"/>
	<path class="st0" d="M8.9,107.8h1.3c0,0.2,0,0.4,0,0.6c0,1.7,0,3.5,0,5.2c0,0.4,0.1,0.6,0.6,0.6c2.6,0,5.2,0,7.8,0
		c0.5,0,1.1,0,1.6,0.2c1.6,0.4,2.6,1.6,2.6,3.6c0.1,3.1,0,6.2,0,9.2c0,0.4,0,0.7-0.1,1.1c-0.3,1.8-2,3.2-3.8,3.2c-2.1,0-4.1,0-6.2,0
		c-2,0-3.8-2-3.8-4.2c0-6.3,0-12.6,0-18.9C8.9,108.2,8.9,108.1,8.9,107.8 M21.5,122.8c0-1.4,0-2.8,0-4.2c0-2.1-1-3.1-3-3.1
		c-1.9,0-3.7,0-5.6,0c-0.2,0-2.7,0-2.7,0s0,2,0,2.9c0,2.9,0,5.7,0,8.6c0,1.9,1.3,3.2,3.2,3.2c1.7,0,3.5,0,5.2,0
		c1.8,0,2.9-1.1,2.9-2.9C21.5,125.8,21.5,124.3,21.5,122.8"/>
	<path class="st0" d="M153.3,107.9h1.3c0,0.2,0,0.4,0,0.6c0,1.7,0,3.4,0,5.1c0,0.7,0,0.7,0.7,0.7c2.6,0,5.1,0,7.7,0
		c0.4,0,0.7,0,1.1,0.1c2.1,0.4,3.1,1.6,3.2,3.9c0,3.2,0,6.4,0,9.5c0,2.1-1.8,3.7-3.9,3.8c-2,0-4.1,0-6.1,0c-2.1,0-3.8-2.3-3.8-3.8
		c0-0.2,0-0.4,0-0.6c0-6.2,0-12.4,0-18.6V107.9z M154.7,122.6c0,1.4,0,2.9,0,4.3c0,0,0,0.1,0,0.1c0,1.8,1.3,3.1,3.1,3.1
		c1.9,0,3.8,0,5.7,0c0.8,0,1.4-0.3,1.8-0.9c0.5-0.6,0.7-1.3,0.7-2c0-2.8,0-5.7,0-8.5c0-2.1-1-3.1-3.1-3.1c-1.8,0-6.3-0.1-8.1-0.1
		C154.7,115.5,154.7,121.2,154.7,122.6"/>
	<path class="st0" d="M103.2,120c0-0.9,0.1-1.7,0-2.5c-0.1-1.2-1-2-2.3-2c-3.3,0-6.6,0-9.9,0c-0.5,0-0.6-0.2-0.6-0.6
		c0-0.4-0.1-0.7,0.6-0.7c3.4,0,6.8,0,10.1,0c1.9,0,2.9,0.8,3.3,2.4c0.1,0.2,0.1,0.4,0.1,0.6c0,3.4,0,6.8,0,10.2c0,2.2-1.8,4-4,4
		c-1.9,0-3.9,0-5.8,0c-2.4,0-4.3-1.9-4.3-4.2c0-1.4,0-2.7,0.2-4.1c0.3-2.1,1.7-3.2,3.8-3.2c2.6,0,5.3,0,7.9,0H103.2z M97.3,130.2
		c0,0,2.2-0.1,3.3-0.1c1.7-0.1,2.7-1.2,2.7-2.8c0-1,0-2,0-3c0-0.7,0-2.7,0-2.7s-6.6-0.2-8.9-0.1c-1.5,0.1-2.5,1.3-2.5,2.6
		c0,1.2,0,2.4,0,3.6c0,1.2,0.8,2.2,2,2.4C95,130.2,96.1,130.1,97.3,130.2"/>
	<path class="st0" d="M133,120c0-0.9,0.1-1.7,0-2.5c-0.1-1.2-1-2-2.3-2c-3.3,0-6.6,0-9.9,0c-0.5,0-0.6-0.2-0.6-0.6
		c0-0.4-0.1-0.7,0.6-0.7c3.4,0,6.8,0,10.1,0c1.9,0,2.9,0.8,3.3,2.4c0.1,0.2,0.1,0.4,0.1,0.6c0,3.4,0,6.8,0,10.2c0,2.2-1.8,4-4,4
		c-1.9,0-3.9,0-5.8,0c-2.4,0-4.3-1.9-4.3-4.2c0-1.4,0-2.7,0.2-4.1c0.3-2.1,1.7-3.2,3.8-3.2c2.6,0,5.3,0,7.9,0H133z M127.1,130.2
		c0,0,2.2-0.1,3.3-0.1c1.7-0.1,2.7-1.2,2.7-2.8c0-1,0-2,0-3c0-0.7,0-2.7,0-2.7s-6.6-0.2-8.9-0.1c-1.5,0.1-2.5,1.3-2.5,2.6
		c0,1.2,0,2.4,0,3.6c0,1.2,0.8,2.2,2,2.4C124.8,130.2,125.9,130.1,127.1,130.2"/>
	<path class="st0" d="M243.8,131.5h-2.3c-2.4,0-4.8,0-7.2,0c-0.5,0-1,0-1.5-0.1c-1.8-0.4-3.1-1.9-3.1-3.8c0-3,0-6,0-9
		c0-2.6,1.5-4.2,4.1-4.3c2-0.1,4.1,0,6.1,0c2.2,0,3.5,1.4,3.6,3.6c0,0.7,0.2,1.5-0.1,2c-0.3,0.5-1.1,0.6-1.7,0.9
		c-3.4,1.6-6.9,3.2-10.3,4.8c-0.3,0.2-0.5,0.3-0.4,0.7c0.1,0.8,0.1,1.6,0.3,2.3c0.3,1,1,1.6,2.1,1.6c1.1,0.1,2.2,0,3.4,0.1
		c2.1,0,4.1,0,6.2,0c0.8,0,0.8,0,0.8,0.8C243.8,131.1,243.8,131.3,243.8,131.5 M231.1,124.2c0.6-0.3,1-0.5,1.5-0.7
		c3.1-1.4,6.1-2.9,9.2-4.3c0.2-0.1,0.4-0.2,0.4-0.4c0.5-1.8-0.6-3.2-2.5-3.3c-1.9,0-3.8,0-5.8,0c-1.5,0-2.7,0.9-2.8,2.4
		c-0.1,1.6-0.1,3.3-0.1,5C231.1,123.3,231.1,123.7,231.1,124.2"/>
	<path class="st0" d="M196.2,122.7c0,1.7,0,3.3,0,5c0,1.9-1.4,3.5-3.3,3.7c-0.5,0.1-0.9,0.1-1.4,0.1c-2.1,0-4.2,0-6.2-0.1
		c-1.4-0.1-2.4-0.9-2.9-2.4c-0.3-0.9-0.4-1.9-0.4-2.8c0-2.8,0-5.7,0-8.5c0-2.2,1.3-3.4,3.4-3.5c2.4-0.1,4.8-0.1,7.2,0
		c1.6,0,3.1,0.9,3.4,2.5c0.1,0.3,0.1,0.6,0.1,0.9C196.2,119.4,196.2,121,196.2,122.7 M194.8,122.9L194.8,122.9c0-1.5,0-2.9,0-4.4
		c0-1.8-1.2-2.9-2.9-2.9c-1.9,0-3.7,0-5.6,0c-1.8,0-3,1.2-3,3c0,2.8,0,5.6,0,8.3c0,2,1.2,3.2,3.3,3.2c1.7,0,3.3,0,5,0
		c2.1,0,3.2-1.1,3.3-3.3C194.9,125.5,194.8,124.2,194.8,122.9"/>
	<path class="st0" d="M306,114.3v1.3c-0.2,0-0.4,0-0.6,0c-2.6,0-5.3,0-7.9,0c-1.6,0-2.5,0.9-2.5,2.5c0,0.4,0,0.7,0,1.1
		c0,1.6,1,2.6,2.6,2.6c1.6,0,3.2,0.1,4.7,0c1.9-0.1,3.8,1.4,3.7,3.7c-0.1,1.2,0,2.4-0.1,3.5c-0.2,1.5-1.6,2.6-3.1,2.6
		c-3,0-5.9,0-8.9,0c-0.1,0-0.1,0-0.3,0c0-0.3,0-0.7,0-1c0-0.1,0.2-0.3,0.4-0.3c0.6,0,1.3,0,1.9,0c2,0,4-0.1,6,0
		c1.6,0.1,2.6-0.9,2.7-2.4c0-0.7,0.1-1.5,0-2.3c-0.2-1.6-1.1-2.4-2.7-2.4c-1.6,0-3.1,0-4.7,0c-0.6,0-1.3-0.2-1.9-0.4
		c-1.1-0.5-1.7-1.4-1.7-2.6c0-1.2,0-2.4,0.1-3.6c0.2-1.3,1.3-2.2,2.6-2.3c3.1,0,6.3,0,9.4,0C305.8,114.2,305.9,114.3,306,114.3"/>
	<path class="st0" d="M287.6,114.3v1.3H287c-1.9,0-3.8,0-5.7,0c-2,0-3.2,1.2-3.2,3.2c0,2.7,0,5.5,0,8.2c0,1.9,1.4,3.2,3.2,3.2
		c1.9,0,3.7,0,5.6,0c0.2,0,0.6,0.1,0.6,0.2c0.1,0.4,0,0.7,0,1.1c0,0-0.2,0.1-0.3,0.1c-2.3,0-4.6,0.1-6.8-0.1
		c-2.3-0.2-3.7-1.9-3.7-4.1c0-3.1,0-6.1,0-9.2c0-0.5,0-0.9,0.1-1.4c0.3-1.5,1.4-2.4,3.2-2.5c2.4-0.1,4.8,0,7.2,0
		C287.5,114.2,287.5,114.3,287.6,114.3"/>
	<path class="st0" d="M254.3,115.5h-3.2c0,0.3,0,0.5,0,0.8c0,4.7,0,9.5,0,14.2c0,1.1,0.1,0.9-1,0.9c-0.1,0-0.2,0-0.4,0v-23.6
		c0,0,0.1-0.1,0.1-0.1c1.5,0,1.2-0.2,1.2,1.1c0,1.5,0,3,0,4.5c0,0.8,0,0.8,0.8,0.8c0.8,0,1.6,0,2.5,0V115.5z"/>
	<path class="st0" d="M115.9,114.2v1.3h-1.6h-1.6c0,0.3,0,0.5,0,0.8c0,4.8,0,9.6,0,14.4c0,0.2,0,0.6-0.1,0.7c-0.3,0.1-0.7,0.1-1,0
		c-0.1,0-0.1-0.1-0.1-0.2c0-0.2,0-0.3,0-0.5c0-7.4,0-14.8,0-22.2c0-0.2,0-0.6,0.1-0.7c0.3-0.1,0.7-0.1,1,0c0.1,0,0.2,0.3,0.2,0.5
		c0,1.7,0,3.4,0,5.1c0,0.7,0,0.7,0.7,0.7C114.2,114.2,115,114.2,115.9,114.2"/>
	<path class="st0" d="M263.7,114.2v1.3c-0.4,0-0.8,0.1-1.2,0.1c-1.3,0.3-2,1-2.1,2.3c0,0.3,0,0.6,0,0.9c0,4,0,7.9,0,11.9
		c0,0.2,0,0.6-0.1,0.7c-0.3,0.1-0.7,0-1,0c0,0-0.1-0.2-0.1-0.3c0-0.2,0-0.3,0-0.5c0-4.4,0-8.7,0-13.1c0-0.4,0-0.7,0.1-1.1
		c0.3-1.5,1.1-2.2,2.7-2.3C262.4,114.2,263,114.2,263.7,114.2"/>
	<path class="st0" d="M29.4,131.5v-17.2c0.1,0,0.1-0.1,0.2-0.1c1.4,0,1.2-0.1,1.2,1.1c0,5.1,0,10.2,0,15.3c0,1.1,0.1,0.9-0.9,0.9
		C29.7,131.5,29.6,131.5,29.4,131.5"/>
	<path class="st0" d="M270.2,131.5h-1.3v-17.2c0,0,0-0.1,0.1-0.1c1.2-0.2,1.2-0.2,1.2,1v15.5V131.5z"/>
	<path class="st0" d="M175.3,122.9c0,2.7,0,5.3,0,8c0,0.2-0.1,0.6-0.1,0.6c-0.3,0.1-0.7,0-1,0c-0.1,0-0.1-0.3-0.1-0.4
		c0-0.8,0-1.5,0-2.3c0-4.6,0-9.2,0-13.8c0-0.2,0-0.6,0.1-0.7c0.3-0.1,0.7-0.1,1,0c0.1,0,0.1,0.4,0.2,0.5c0,2.1,0,4.3,0,6.4
		C175.3,121.8,175.3,122.4,175.3,122.9"/>
	<path class="st0" d="M269.5,110.4c-0.7,0-1.2-0.5-1.2-1.3c0-0.7,0.5-1.3,1.2-1.3c0.7,0,1.3,0.6,1.3,1.3
		C270.8,109.8,270.2,110.4,269.5,110.4"/>
	<path class="st0" d="M28.8,109.1c0-0.7,0.5-1.3,1.2-1.3c0.7,0,1.3,0.6,1.3,1.3c0,0.7-0.6,1.3-1.3,1.3
		C29.3,110.4,28.8,109.9,28.8,109.1"/>
	<path class="st0" d="M174.6,107.8c0.7,0,1.3,0.6,1.3,1.3c0,0.7-0.6,1.3-1.2,1.3c-0.7,0-1.2-0.5-1.2-1.3
		C173.4,108.4,173.9,107.8,174.6,107.8"/>
</g>
</svg>
