<svg id="Layer_1" xmlns="http://www.w3.org/2000/svg" viewBox="0 0 835.4 744.9"><style>.st0{fill:#D62D5C;} .st1{fill:#D2507A;} .st2{fill:#FFFFFF;} .st3{fill:#4179A1;} .st4{fill:#2D4C69;} .st5{fill:#6BA2B9;}</style><g id="dADqpm.tif_18_"><path class="st0" d="M400.7 147.2c-8.9-16.2-15-27.3-21.1-38.5-40-73.3-102.4-107.6-185-105.5-17.5.4-34.9 4-52.3 6.1-38.3 4.6-71 21.4-95.3 50.6-57.7 69.2-54.9 148.4-30.7 228.5 16.2 53.7 47.5 100.2 81.1 144.7 80.1 106.2 173.4 200.1 272.1 288.7 29.6 26.6 33.8 34.9 69.4-.2 67-66.1 135.2-131.3 198.1-201.2 69.8-77.6 137.8-158.7 160.4-264.7 7.8-36.4 7.9-76.2 2.6-113.2-6-42.5-28.4-79.2-65.9-104.5-28.6-19.3-60.8-25.4-94-31.6-45.4-8.5-88.4 0-128.9 16.2-41.5 16.5-71.6 49.2-91.7 89.9-5.4 10.7-11.5 21.2-18.8 34.7z"/><path class="st0" d="M400.7 147.2c7.3-13.5 13.5-24 18.8-34.8 74.7-151 353.8-148.4 381.2 35.5 34.6 232.6-216 429.9-361.8 573.7-35.6 35.1-39.8 26.8-69.4.2-127-114-291.9-258.5-349.8-424.2-34.2-97.9-19.1-239.9 89-283.3 95.2-38.3 221.1 3.2 270.8 94.5 6.1 11.1 12.3 22.2 21.2 38.4z"/><g id="dADqpm.tif_1_"><path class="st1" d="M402.8 244.1c-6-10.9-10.1-18.4-14.2-26-26.9-49.4-69-72.5-124.7-71.1-11.8.3-23.5 2.7-35.3 4.1-25.8 3.1-47.9 14.5-64.3 34.1-38.9 46.7-37 100-20.7 154.1 10.9 36.2 32.1 67.6 54.7 97.6 54 71.6 116.9 134.9 183.5 194.7 20 17.9 22.8 23.5 46.8-.1 45.2-44.6 91.2-88.6 133.6-135.7 47.1-52.3 92.9-107 108.1-178.5 5.2-24.6 5.3-51.4 1.8-76.4-4.1-28.7-19.2-53.4-44.4-70.5-19.3-13-41-17.1-63.4-21.3-30.6-5.7-59.6 0-86.9 10.9-28 11.1-48.3 33.2-61.8 60.6-3.8 7.3-7.9 14.4-12.8 23.5z"/><path class="st1" d="M402.8 244.1c5-9.1 9.1-16.2 12.7-23.5 50.4-101.8 238.6-100.1 257.1 23.9C696 401.3 527 534.4 428.6 631.3c-24 23.6-26.8 18.1-46.8.1-85.6-76.9-196.8-174.3-235.9-286.1-23-66-12.9-161.7 60-191.1 64.2-25.8 149.1 2.2 182.6 63.7 4.1 7.8 8.3 15.3 14.3 26.2z"/></g><g id="dADqpm.tif_2_"><path class="st0" d="M401.3 334.9c-3.1-5.6-5.2-9.5-7.3-13.3-13.8-25.4-35.4-37.3-64-36.5-6 .2-12.1 1.4-18.1 2.1-13.3 1.6-24.6 7.4-33 17.5-20 24-19 51.4-10.6 79.1 5.6 18.6 16.5 34.7 28.1 50.1 27.7 36.8 60 69.3 94.2 100 10.3 9.2 11.7 12.1 24-.1 23.2-22.9 46.8-45.5 68.6-69.7 24.2-26.9 47.7-55 55.5-91.6 2.7-12.6 2.7-26.4.9-39.2-2.1-14.7-9.8-27.4-22.8-36.2-9.9-6.7-21-8.8-32.5-10.9-15.7-2.9-30.6 0-44.6 5.6-14.4 5.7-24.8 17-31.8 31.1-1.9 3.7-4 7.3-6.6 12z"/><path class="st0" d="M401.3 334.9c2.5-4.7 4.7-8.3 6.5-12 25.9-52.3 122.5-51.4 132 12.3 12 80.5-74.8 148.9-125.3 198.7-12.3 12.1-13.8 9.3-24 .1-44-39.5-101.1-89.5-121.1-146.9-11.8-33.9-6.6-83.1 30.8-98.1 33-13.3 76.6 1.1 93.8 32.7 2.1 3.8 4.3 7.6 7.3 13.2z"/></g></g><g id="XMLID_16_"><path id="XMLID_17_" class="st2" d="M247.2 371.6c4.2-4.4 14.7-7.4 26.2-60.2 0 0 3.6-.7 3.4 3-.3 4.2-5.3 37-21.3 57.9-14.3 17.4-24.3-2.5-25.4-8.5-2.2-15.2-2.3-29.7-1.3-44.9 1-13.8 4.7-51.7 1-48.3-25.2 25.1-28.5 58.8-29.5 64.8-1 53.2-13.7 27.8-14.4 14.8-1.2-18.7-1-56.5.3-80.4.7-12.1-1-19.1.1-20.2 9-2.2 16.9 9.6 16.9 18.3-.7 13.5-1.4 25-1.8 31.5 1-2.2 15.9-25.6 24.5-34 13.4-8.7 21.9 13.8 20.8 23-7.2 91.8.5 83.2.5 83.2z"/><path id="XMLID_19_" class="st2" d="M303.7 316.5c-1.2-21.3-6.6-17.3-6.6-17.3-14.1 13.9-15.2 48.1-11.4 48.4 4.4-.3 10.4-8.1 11.4-13.8 2.1-10.9 5.6-12.4 7.9-10 3.6 2.7 6 6.4 4.7 10.3-3 23.3 1.7 21.7 3.3 20.8 7.4-4.4 17.7-20.4 23.2-43.7 0 0 1.7-2.1 2.9-.4 2 1 1.2 3.6 1.2 3.6-10.4 41.2-24.6 42.9-28.1 46.5-13.3 5.9-14.2-12.8-15.5-15.6-8.1 9.6-16.4 9.1-18.7 7.8-17.3-2.7-6.6-52.6 7.5-58.9 17.3-7.8 22.5 16.4 21.6 20.8l-3.4 1.5z"/><path id="XMLID_21_" class="st2" d="M374.7 247.4c9-4.7 15.9 5.3 15.9 12 0 13.3-2 48.5-1 51.5.9-3.9 14.8-51.1 28.9-42.8 10.4 6.2 9.8 19.8 9.8 21.9 9.1-28.5 18.2-29.1 20.4-28.5 20.4 5.2 12.8 43.3 12.8 56.2-.9 10.5-.8 28.8-.5 39.3.9 31.1 24.1-2.2 27.2-45.3.4-2 3.6-.8 3.1 3.5-3.8 45.7-18.6 65.2-34.6 59.9-16-5.3-9.8-51.5-8.8-68.7 0-10.5 4.4-37.7-1.2-38.1-3.5-.3-13.5 22.2-14.4 25.2-7 18.1-4.6 44.8-5.5 55.3-3 19.3-13.9 2.7-13.7-2 .9-15.4 1.6-71.6-1-72.2-5.6-.1-19.3 45-21.3 51.7 0 13.1-2.6 20.9-3.5 24.9-7.9 20.9-12.5-10.3-12.8-20.3-.4-14.2 0-43.6.7-63.6.1-10.6-1.2-18.1-.5-19.9z"/><path id="XMLID_23_" class="st2" d="M530.4 310.3s2.1-.1 2.3.3c.7.9.8 3.4.8 3.4-5.3 42.7-20 59.1-38.1 54.4-14.7-4.4-7-59.7-6.2-62.7.9-3.6 5.3-6 8.1-4.3 6.1 3.9 7.4 8.6 6.6 11.6-2.2 12.9-3 25.5-3.6 39.2-.8 16.3 21 20.5 30.1-41.9zm-22.7-26.2c-.7 2.5-.5 6.1-1.7 7.4-.9 1.2-10.3-.9-10.4-2.2-4.6-8.5.8-11.7.8-11.7 2.9.5 10.7 2.6 11.3 6.5z"/><path id="XMLID_26_" class="st2" d="M593.4 311.9s.9-1.6 3-.1c1.6.9.9 3.4.9 3.4-7.7 50.1-18.1 55-23.4 57.9-9.2 4.8-18.1.7-20.8-4.2-8.6-15.1-1.7-38.8.4-46.1-10.3 3.4-19.5-.3-23.6-5.1-4-7.5-7.2-12.8-4.7-21.9 3-8.5 10.3-10.9 14.8-7.2 7.2 6-.3 15.2-3.6 22.6 2.9 7.9 16.8 5.7 20.9 2.6 5.5-3.4 12.2-1 11.7 6-.1 10.5-1.4 12.8-2.7 22.2-3.4 25.1 3.5 25.8 3.5 25.8 14.5 2.5 23.6-55.9 23.6-55.9zm-60.8-4.6c3.5-8.2 5.7-10.1 4.7-13.9 0 0-2-4.3-5.7.1-2.3 4.9-1.4 10.5 1 13.8z"/><path id="XMLID_29_" class="st2" d="M624.1 316.5c-1.2-21.3-6.6-17.3-6.6-17.3-14.1 13.9-15.2 48.1-11.4 48.4 4.4-.3 10.4-8.1 11.4-13.8 2.1-10.9 5.6-12.4 7.9-10 3.6 2.7 6 6.4 4.7 10.3-3 23.3 1.7 21.7 3.3 20.8 7.4-4.4 17.7-20.4 23.2-43.7 0 0 1.7-2.1 2.9-.4 2 1 1.2 3.6 1.2 3.6-10.4 41.2-24.6 42.9-28.1 46.5-13.3 5.9-14.2-12.8-15.5-15.6-8.1 9.6-16.4 9.1-18.7 7.8-17.3-2.7-6.6-52.6 7.5-58.9 17.3-7.8 22.5 16.4 21.6 20.8l-3.4 1.5z"/></g><path class="st3" d="M667 489.6c56.6-6.7 112.8-15 168.4-24.9l-37.5-47.4 35.2-61.1c-54.8 10-110.2 18.4-166.1 25.2v108.2zm-495.2 0c-56.6-6.7-112.8-15-168.4-24.9l37.5-47.4-35.2-61.2c54.8 10 110.2 18.4 166.1 25.2v108.3z"/><path class="st4" d="M766 494.5v-86.7l-99.3-26.5V468l99.3 26.5zm-693.9 0v-86.7l99.3-26.5V468l-99.3 26.5z"/><path class="st5" d="M72.1 407.6v118C185.9 539.1 301.6 546 419 546s233.2-6.9 346.9-20.4v-118c-113.7 13.8-229.5 20.9-346.9 20.9s-233.2-7.1-346.9-20.9z"/><g id="XMLID_1_"><path id="XMLID_75_" class="st2" d="M162.6 484.3c-7-.7-10.5-1-17.5-1.8-1.7 3.1-2.5 4.6-4.2 7.7-4.3-.5-6.5-.7-10.8-1.2 8.5-13.8 16.9-27.6 25.2-41.6l4.5.5c5.3 15.3 10.7 30.6 16.3 45.8-4.3-.4-6.5-.6-10.8-1-1.2-3.4-1.7-5-2.7-8.4zm-2.4-8c-1.7-5.5-2.5-8.3-4.2-13.8-2.7 5.1-4.1 7.6-6.9 12.7 4.4.5 6.6.7 11.1 1.1z"/><path id="XMLID_73_" class="st2" d="M215.4 461.7c-.1 1-.1 1.4-.2 2.4 3.4.3 5.2.4 8.6.7-.2 2.8-.3 4.1-.5 6.9-3.4-.3-5.2-.4-8.6-.7-.8 10.4-1.2 15.6-2 25.9-3.4-.3-5.1-.4-8.4-.7.8-10.4 1.3-15.5 2.1-25.9-2-.2-3-.2-5.1-.4.2-2.8.3-4.1.6-6.9 2 .2 3 .3 5 .4.1-1.2.1-1.8.2-2.9.6-7.5 6.3-11.6 12.5-11.1 2.8.2 4.8 1 6.3 2.2-.2 2.8-.3 4.1-.5 6.9-1.2-.9-3-1.5-4.9-1.6-2.6-.2-4.8 1.1-5.1 4.8z"/><path id="XMLID_70_" class="st2" d="M259.7 486.2c-9.7-.6-14.5-.9-24.2-1.6.5 4.5 4.1 7.7 9.3 8.1 4.9.3 8.3-1.2 10.4-2.3l-.5 7.5c-1.9 1.3-5.6 2.7-10.8 2.3-9.9-.7-17.5-8.4-16.8-18.3.7-9.6 8.4-17.1 18.1-16.4 9.8.7 15.2 7.8 14.6 17.3 0 1.3 0 2-.1 3.4zm-7.7-5.9c0-4.8-3.6-7.4-7.4-7.7-4.1-.3-7.4 2.3-8.6 6.6 6.4.5 9.6.7 16 1.1z"/><path id="XMLID_68_" class="st2" d="M288.8 470.9c-.1 2.9-.2 4.4-.4 7.3-2-1.5-5.1-3.3-8.4-3.4-3.2-.2-5.2 1.3-5.3 3.2-.1 1.4.7 2.6 3.6 3.7 1.5.6 2.2.9 3.7 1.4 5.1 1.8 7.4 4.8 7.2 9-.3 6.1-6.4 10.3-13.6 9.9-4.5-.2-9.1-2.2-11.2-4 .2-2.9.3-4.3.4-7.2 2.4 1.8 6.8 3.8 10.1 4 3.4.2 5.3-1 5.4-3.1.1-1.7-1.4-2.5-4.3-3.6-1.6-.7-2.4-1-4-1.7-5-2-6.5-5.1-6.2-9.3.4-6.2 5.9-10.1 13.3-9.7 4.2.3 7.9 1.8 9.7 3.5z"/><path id="XMLID_66_" class="st2" d="M309.5 469.7c3.7.2 5.5.2 9.2.4-.1 2.8-.2 4.1-.3 6.9-3.7-.1-5.5-.2-9.2-.4-.2 5.7-.4 8.5-.6 14.2-.1 2.9 1.2 4.8 3.9 4.9 2.4.1 4-.4 5.6-1.3-.1 2.6-.2 3.9-.3 6.6-1.7 1.6-4.2 2.8-8 2.6-6-.2-10-4.5-9.7-11 .3-6.5.4-9.8.7-16.3-2.4-.1-3.6-.2-6-.3.1-1.7.1-2.5.2-4.2 4.3-1.3 8.2-5.2 10.6-11.8 1.7.1 2.6.1 4.3.2-.2 3.8-.3 5.7-.4 9.5z"/><path id="XMLID_63_" class="st2" d="M350.3 474.8c0-1.5.1-2.2.1-3.7 3.3.1 5 .1 8.3.2-.2 11-.5 21.9-.7 32.9-3.4-.1-5.1-.1-8.4-.2.1-2.2.1-3.3.1-5.5-2.1 3.5-6 6.4-10.9 6.2-8.1-.2-14.8-6.7-14.4-17.7.4-11 7.5-17.3 16.1-17 3.5.1 7.4 2 9.8 4.8zM333 487.3c-.2 5 3 9 8.1 9.2 4.4.1 8.8-3.4 8.9-9.3 0-1.9.1-2.8.1-4.7-2.3-2.5-5-4.2-8.3-4.3-5.2-.2-8.6 4.2-8.8 9.1z"/><path id="XMLID_60_" class="st2" d="M420.3 504.9h-8.5v-5.5c-2 3.5-5.8 6.5-10.8 6.5-8.1-.1-15-6.4-14.8-17.3.1-11 7.1-17.4 15.6-17.4 3.6 0 7.5 1.9 10 4.6v-17.7h8.3c.1 15.5.2 31.2.2 46.8zm-25.4-16.3c0 5 3.2 9 8.3 9 4.4 0 8.7-3.6 8.6-9.5v-4.7c-2.4-2.5-5.1-4.1-8.4-4.1-5.1-.1-8.4 4.3-8.5 9.3z"/><path id="XMLID_57_" class="st2" d="M464 488.1c.2 9.7-7.9 17.5-17.7 17.6s-18-7.5-18-17.2c0-9.8 8-17.4 17.7-17.5s17.9 7.4 18 17.1zm-26.8.4c0 6 4.3 9.3 9 9.2 4.8-.1 9-3.4 8.9-9.4-.1-6-4.4-9.3-9.1-9.3-4.7.1-8.9 3.5-8.8 9.5z"/><path id="XMLID_55_" class="st2" d="M516.3 472.7c.1 3 .2 4.6.3 7.6-2.4-1.5-5.1-2.7-9.2-2.6-5.1.2-9.2 4.3-9 9.6.2 5.3 4.2 9.1 9.6 8.9 4.1-.1 6.8-1.5 9-3.2.1 3 .2 4.5.3 7.6-1.8 1.6-4.8 3.5-9.8 3.7-10.1.3-17.9-7.5-18.1-16.7-.3-9.3 6.9-17.7 16.9-18 5-.2 8.1 1.7 10 3.1z"/><path id="XMLID_53_" class="st2" d="M554 488c.5 8.8-5.7 14.5-14.4 14.9-8.7.4-15.4-4.7-15.7-13.5-.3-7.8-.5-11.8-.8-19.6 3.4-.1 5-.2 8.4-.4.3 7.2.5 10.9.9 18.1.2 5.1 3 7.5 6.9 7.3 3.9-.2 6.4-2.9 6.2-7.9-.4-7.2-.5-10.9-.9-18.1 3.4-.2 5.1-.3 8.5-.4.2 7.9.4 11.8.9 19.6z"/><path id="XMLID_50_" class="st2" d="M597.4 482c.8 10.9-5.8 18.1-14.4 18.7-3.7.2-7.8-1.5-10.4-4.1.5 7.7.7 11.6 1.1 19.3l-8.5.5c-.9-16.2-1.8-32.3-2.7-48.5 3.3-.2 5-.3 8.3-.5.1 2.2.2 3.3.3 5.5 1.8-3.7 5.3-6.7 10.2-7 8-.5 15.3 5.1 16.1 16.1zm-25.6 2.2c.1 1.9.2 2.8.3 4.7 2.5 2.3 5.4 3.9 8.7 3.7 5.2-.3 8.2-5.2 7.9-10.1-.3-4.9-3.9-8.6-8.9-8.2-4.4.3-8.4 4.1-8 9.9z"/><path id="XMLID_47_" class="st2" d="M616 464.4c.8 10.9 1.7 21.9 2.5 32.8-3.4.3-5.1.4-8.4.6-.8-10.3-1.1-15.5-1.9-25.8-2.1.2-3.2.2-5.3.4l-.5-7c5.4-.4 8.1-.6 13.6-1zm-11.4-10.8c-.2-3.1 2.1-5.8 5.3-6 3.1-.2 5.9 2.1 6.2 5.2.2 3-2.2 5.8-5.3 6-3.3.3-6-2.2-6.2-5.2z"/><path id="XMLID_44_" class="st2" d="M661 493.6c-3.4.3-5.1.5-8.4.8l-.5-5.5c-1.7 3.7-5.2 7-10.2 7.4-8 .7-15.5-5-16.4-15.9-.9-11 5.5-18 14-18.8 3.6-.3 7.7 1.2 10.4 3.7-.6-7.1-1-10.6-1.6-17.7 3.3-.3 5-.5 8.3-.8 1.5 15.6 2.9 31.2 4.4 46.8zm-26.8-14c.4 4.9 4.1 8.6 9.1 8.2 4.4-.4 8.3-4.4 7.7-10.3-.2-1.9-.3-2.8-.4-4.7-2.6-2.3-5.5-3.6-8.7-3.3-5.2.5-8.1 5.2-7.7 10.1z"/><path id="XMLID_4_" class="st2" d="M703.1 472.8c1.1 9.7-6.3 18.1-16.1 19.2-9.7 1-18.6-5.8-19.6-15.5-.9-9.7 6.4-18.1 16-19.1s18.6 5.7 19.7 15.4zm-26.8 2.8c.6 6 5.1 8.9 9.9 8.4 4.8-.5 8.6-4.2 8-10.2-.6-6-5.2-8.9-9.9-8.4-4.8.5-8.6 4.3-8 10.2z"/></g></svg>