<?xml version="1.0" encoding="utf-8"?>
<!-- Generator: Adobe Illustrator 19.0.0, SVG Export Plug-In . SVG Version: 6.00 Build 0)  -->
<svg version="1.1" id="Layer_1" xmlns="http://www.w3.org/2000/svg" xmlns:xlink="http://www.w3.org/1999/xlink" x="0px" y="0px"
	 viewBox="0 0 835.4 744.9" style="enable-background:new 0 0 835.4 744.9;" xml:space="preserve">
<style type="text/css">
	.st0{fill:#D62D5C;}
	.st1{fill:#D2507A;}
	.st2{fill:#FFFFFF;}
	.st3{fill:#4179A1;}
	.st4{fill:#2D4C69;}
	.st5{fill:#6BA2B9;}
</style>
<g>
	<g id="dADqpm.tif_18_">
		<g>
			<g>
				<path class="st0" d="M400.7,147.2c-8.9-16.2-15-27.3-21.1-38.5C339.6,35.4,277.2,1.1,194.6,3.2c-17.5,0.4-34.9,4-52.3,6.1
					C104,13.9,71.3,30.7,47,59.9c-57.7,69.2-54.9,148.4-30.7,228.5c16.2,53.7,47.5,100.2,81.1,144.7
					c80.1,106.2,173.4,200.1,272.1,288.7c29.6,26.6,33.8,34.9,69.4-0.2c67-66.1,135.2-131.3,198.1-201.2
					c69.8-77.6,137.8-158.7,160.4-264.7c7.8-36.4,7.9-76.2,2.6-113.2c-6-42.5-28.4-79.2-65.9-104.5c-28.6-19.3-60.8-25.4-94-31.6
					c-45.4-8.5-88.4,0-128.9,16.2c-41.5,16.5-71.6,49.2-91.7,89.9C414.1,123.2,408,133.7,400.7,147.2z"/>
				<path class="st0" d="M400.7,147.2c7.3-13.5,13.5-24,18.8-34.8c74.7-151,353.8-148.4,381.2,35.5
					c34.6,232.6-216,429.9-361.8,573.7c-35.6,35.1-39.8,26.8-69.4,0.2c-127-114-291.9-258.5-349.8-424.2
					c-34.2-97.9-19.1-239.9,89-283.3c95.2-38.3,221.1,3.2,270.8,94.5C385.6,119.9,391.8,131,400.7,147.2z"/>
			</g>
		</g>
		<g id="dADqpm.tif_1_">
			<g>
				<g>
					<path class="st1" d="M402.8,244.1c-6-10.9-10.1-18.4-14.2-26c-26.9-49.4-69-72.5-124.7-71.1c-11.8,0.3-23.5,2.7-35.3,4.1
						c-25.8,3.1-47.9,14.5-64.3,34.1c-38.9,46.7-37,100-20.7,154.1c10.9,36.2,32.1,67.6,54.7,97.6c54,71.6,116.9,134.9,183.5,194.7
						c20,17.9,22.8,23.5,46.8-0.1c45.2-44.6,91.2-88.6,133.6-135.7c47.1-52.3,92.9-107,108.1-178.5c5.2-24.6,5.3-51.4,1.8-76.4
						c-4.1-28.7-19.2-53.4-44.4-70.5c-19.3-13-41-17.1-63.4-21.3c-30.6-5.7-59.6,0-86.9,10.9c-28,11.1-48.3,33.2-61.8,60.6
						C411.8,227.9,407.7,235,402.8,244.1z"/>
					<path class="st1" d="M402.8,244.1c5-9.1,9.1-16.2,12.7-23.5c50.4-101.8,238.6-100.1,257.1,23.9
						c23.4,156.8-145.6,289.9-244,386.8c-24,23.6-26.8,18.1-46.8,0.1c-85.6-76.9-196.8-174.3-235.9-286.1
						c-23-66-12.9-161.7,60-191.1c64.2-25.8,149.1,2.2,182.6,63.7C392.6,225.7,396.8,233.2,402.8,244.1z"/>
				</g>
			</g>
		</g>
		<g id="dADqpm.tif_2_">
			<g>
				<g>
					<path class="st0" d="M401.3,334.9c-3.1-5.6-5.2-9.5-7.3-13.3c-13.8-25.4-35.4-37.3-64-36.5c-6,0.2-12.1,1.4-18.1,2.1
						c-13.3,1.6-24.6,7.4-33,17.5c-20,24-19,51.4-10.6,79.1c5.6,18.6,16.5,34.7,28.1,50.1c27.7,36.8,60,69.3,94.2,100
						c10.3,9.2,11.7,12.1,24-0.1c23.2-22.9,46.8-45.5,68.6-69.7c24.2-26.9,47.7-55,55.5-91.6c2.7-12.6,2.7-26.4,0.9-39.2
						c-2.1-14.7-9.8-27.4-22.8-36.2c-9.9-6.7-21-8.8-32.5-10.9c-15.7-2.9-30.6,0-44.6,5.6c-14.4,5.7-24.8,17-31.8,31.1
						C406,326.6,403.9,330.2,401.3,334.9z"/>
					<path class="st0" d="M401.3,334.9c2.5-4.7,4.7-8.3,6.5-12c25.9-52.3,122.5-51.4,132,12.3c12,80.5-74.8,148.9-125.3,198.7
						c-12.3,12.1-13.8,9.3-24,0.1c-44-39.5-101.1-89.5-121.1-146.9c-11.8-33.9-6.6-83.1,30.8-98.1c33-13.3,76.6,1.1,93.8,32.7
						C396.1,325.5,398.3,329.3,401.3,334.9z"/>
				</g>
			</g>
		</g>
	</g>
	<g id="XMLID_16_">
		<path id="XMLID_17_" class="st2" d="M247.2,371.6c4.2-4.4,14.7-7.4,26.2-60.2c0,0,3.6-0.7,3.4,3c-0.3,4.2-5.3,37-21.3,57.9
			c-14.3,17.4-24.3-2.5-25.4-8.5c-2.2-15.2-2.3-29.7-1.3-44.9c1-13.8,4.7-51.7,1-48.3c-25.2,25.1-28.5,58.8-29.5,64.8
			c-1,53.2-13.7,27.8-14.4,14.8c-1.2-18.7-1-56.5,0.3-80.4c0.7-12.1-1-19.1,0.1-20.2c9-2.2,16.9,9.6,16.9,18.3
			c-0.7,13.5-1.4,25-1.8,31.5c1-2.2,15.9-25.6,24.5-34c13.4-8.7,21.9,13.8,20.8,23C239.5,380.2,247.2,371.6,247.2,371.6z"/>
		<path id="XMLID_19_" class="st2" d="M303.7,316.5c-1.2-21.3-6.6-17.3-6.6-17.3c-14.1,13.9-15.2,48.1-11.4,48.4
			c4.4-0.3,10.4-8.1,11.4-13.8c2.1-10.9,5.6-12.4,7.9-10c3.6,2.7,6,6.4,4.7,10.3c-3,23.3,1.7,21.7,3.3,20.8
			c7.4-4.4,17.7-20.4,23.2-43.7c0,0,1.7-2.1,2.9-0.4c2,1,1.2,3.6,1.2,3.6c-10.4,41.2-24.6,42.9-28.1,46.5
			c-13.3,5.9-14.2-12.8-15.5-15.6c-8.1,9.6-16.4,9.1-18.7,7.8c-17.3-2.7-6.6-52.6,7.5-58.9c17.3-7.8,22.5,16.4,21.6,20.8
			L303.7,316.5z"/>
		<path id="XMLID_21_" class="st2" d="M374.7,247.4c9-4.7,15.9,5.3,15.9,12c0,13.3-2,48.5-1,51.5c0.9-3.9,14.8-51.1,28.9-42.8
			c10.4,6.2,9.8,19.8,9.8,21.9c9.1-28.5,18.2-29.1,20.4-28.5c20.4,5.2,12.8,43.3,12.8,56.2c-0.9,10.5-0.8,28.8-0.5,39.3
			c0.9,31.1,24.1-2.2,27.2-45.3c0.4-2,3.6-0.8,3.1,3.5c-3.8,45.7-18.6,65.2-34.6,59.9c-16-5.3-9.8-51.5-8.8-68.7
			c0-10.5,4.4-37.7-1.2-38.1c-3.5-0.3-13.5,22.2-14.4,25.2c-7,18.1-4.6,44.8-5.5,55.3c-3,19.3-13.9,2.7-13.7-2
			c0.9-15.4,1.6-71.6-1-72.2c-5.6-0.1-19.3,45-21.3,51.7c0,13.1-2.6,20.9-3.5,24.9c-7.9,20.9-12.5-10.3-12.8-20.3
			c-0.4-14.2,0-43.6,0.7-63.6C375.3,256.7,374,249.2,374.7,247.4z"/>
		<path id="XMLID_23_" class="st2" d="M530.4,310.3c0,0,2.1-0.1,2.3,0.3c0.7,0.9,0.8,3.4,0.8,3.4c-5.3,42.7-20,59.1-38.1,54.4
			c-14.7-4.4-7-59.7-6.2-62.7c0.9-3.6,5.3-6,8.1-4.3c6.1,3.9,7.4,8.6,6.6,11.6c-2.2,12.9-3,25.5-3.6,39.2
			C499.5,368.5,521.3,372.7,530.4,310.3z M507.7,284.1c-0.7,2.5-0.5,6.1-1.7,7.4c-0.9,1.2-10.3-0.9-10.4-2.2
			c-4.6-8.5,0.8-11.7,0.8-11.7C499.3,278.1,507.1,280.2,507.7,284.1z"/>
		<path id="XMLID_26_" class="st2" d="M593.4,311.9c0,0,0.9-1.6,3-0.1c1.6,0.9,0.9,3.4,0.9,3.4c-7.7,50.1-18.1,55-23.4,57.9
			c-9.2,4.8-18.1,0.7-20.8-4.2c-8.6-15.1-1.7-38.8,0.4-46.1c-10.3,3.4-19.5-0.3-23.6-5.1c-4-7.5-7.2-12.8-4.7-21.9
			c3-8.5,10.3-10.9,14.8-7.2c7.2,6-0.3,15.2-3.6,22.6c2.9,7.9,16.8,5.7,20.9,2.6c5.5-3.4,12.2-1,11.7,6c-0.1,10.5-1.4,12.8-2.7,22.2
			c-3.4,25.1,3.5,25.8,3.5,25.8C584.3,370.3,593.4,311.9,593.4,311.9z M532.6,307.3c3.5-8.2,5.7-10.1,4.7-13.9c0,0-2-4.3-5.7,0.1
			C529.3,298.4,530.2,304,532.6,307.3z"/>
		<path id="XMLID_29_" class="st2" d="M624.1,316.5c-1.2-21.3-6.6-17.3-6.6-17.3c-14.1,13.9-15.2,48.1-11.4,48.4
			c4.4-0.3,10.4-8.1,11.4-13.8c2.1-10.9,5.6-12.4,7.9-10c3.6,2.7,6,6.4,4.7,10.3c-3,23.3,1.7,21.7,3.3,20.8
			c7.4-4.4,17.7-20.4,23.2-43.7c0,0,1.7-2.1,2.9-0.4c2,1,1.2,3.6,1.2,3.6c-10.4,41.2-24.6,42.9-28.1,46.5
			c-13.3,5.9-14.2-12.8-15.5-15.6c-8.1,9.6-16.4,9.1-18.7,7.8c-17.3-2.7-6.6-52.6,7.5-58.9c17.3-7.8,22.5,16.4,21.6,20.8
			L624.1,316.5z"/>
	</g>
	<g>
		<g>
			<path class="st3" d="M667,489.6c56.6-6.7,112.8-15,168.4-24.9l-37.5-47.4l35.2-61.1c-54.8,10-110.2,18.4-166.1,25.2V489.6z"/>
			<path class="st3" d="M171.8,489.6c-56.6-6.7-112.8-15-168.4-24.9l37.5-47.4L5.7,356.1c54.8,10,110.2,18.4,166.1,25.2V489.6z"/>
		</g>
		<g>
			<path class="st4" d="M766,494.5v-86.7l-99.3-26.5V468L766,494.5z"/>
			<path class="st4" d="M72.1,494.5v-86.7l99.3-26.5V468L72.1,494.5z"/>
		</g>
		<path class="st5" d="M72.1,407.6v118c113.8,13.5,229.5,20.4,346.9,20.4s233.2-6.9,346.9-20.4v-118
			c-113.7,13.8-229.5,20.9-346.9,20.9S185.8,421.4,72.1,407.6z"/>
	</g>
	<g>
		<g id="XMLID_1_">
			<path id="XMLID_75_" class="st2" d="M162.6,484.3c-7-0.7-10.5-1-17.5-1.8c-1.7,3.1-2.5,4.6-4.2,7.7c-4.3-0.5-6.5-0.7-10.8-1.2
				c8.5-13.8,16.9-27.6,25.2-41.6c1.8,0.2,2.7,0.3,4.5,0.5c5.3,15.3,10.7,30.6,16.3,45.8c-4.3-0.4-6.5-0.6-10.8-1
				C164.1,489.3,163.6,487.7,162.6,484.3z M160.2,476.3c-1.7-5.5-2.5-8.3-4.2-13.8c-2.7,5.1-4.1,7.6-6.9,12.7
				C153.5,475.7,155.7,475.9,160.2,476.3z"/>
			<path id="XMLID_73_" class="st2" d="M215.4,461.7c-0.1,1-0.1,1.4-0.2,2.4c3.4,0.3,5.2,0.4,8.6,0.7c-0.2,2.8-0.3,4.1-0.5,6.9
				c-3.4-0.3-5.2-0.4-8.6-0.7c-0.8,10.4-1.2,15.6-2,25.9c-3.4-0.3-5.1-0.4-8.4-0.7c0.8-10.4,1.3-15.5,2.1-25.9c-2-0.2-3-0.2-5.1-0.4
				c0.2-2.8,0.3-4.1,0.6-6.9c2,0.2,3,0.3,5,0.4c0.1-1.2,0.1-1.8,0.2-2.9c0.6-7.5,6.3-11.6,12.5-11.1c2.8,0.2,4.8,1,6.3,2.2
				c-0.2,2.8-0.3,4.1-0.5,6.9c-1.2-0.9-3-1.5-4.9-1.6C217.9,456.7,215.7,458,215.4,461.7z"/>
			<path id="XMLID_70_" class="st2" d="M259.7,486.2c-9.7-0.6-14.5-0.9-24.2-1.6c0.5,4.5,4.1,7.7,9.3,8.1c4.9,0.3,8.3-1.2,10.4-2.3
				c-0.2,3-0.3,4.5-0.5,7.5c-1.9,1.3-5.6,2.7-10.8,2.3c-9.9-0.7-17.5-8.4-16.8-18.3c0.7-9.6,8.4-17.1,18.1-16.4
				c9.8,0.7,15.2,7.8,14.6,17.3C259.8,484.1,259.8,484.8,259.7,486.2z M252,480.3c0-4.8-3.6-7.4-7.4-7.7c-4.1-0.3-7.4,2.3-8.6,6.6
				C242.4,479.7,245.6,479.9,252,480.3z"/>
			<path id="XMLID_68_" class="st2" d="M288.8,470.9c-0.1,2.9-0.2,4.4-0.4,7.3c-2-1.5-5.1-3.3-8.4-3.4c-3.2-0.2-5.2,1.3-5.3,3.2
				c-0.1,1.4,0.7,2.6,3.6,3.7c1.5,0.6,2.2,0.9,3.7,1.4c5.1,1.8,7.4,4.8,7.2,9c-0.3,6.1-6.4,10.3-13.6,9.9c-4.5-0.2-9.1-2.2-11.2-4
				c0.2-2.9,0.3-4.3,0.4-7.2c2.4,1.8,6.8,3.8,10.1,4c3.4,0.2,5.3-1,5.4-3.1c0.1-1.7-1.4-2.5-4.3-3.6c-1.6-0.7-2.4-1-4-1.7
				c-5-2-6.5-5.1-6.2-9.3c0.4-6.2,5.9-10.1,13.3-9.7C283.3,467.7,287,469.2,288.8,470.9z"/>
			<path id="XMLID_66_" class="st2" d="M309.5,469.7c3.7,0.2,5.5,0.2,9.2,0.4c-0.1,2.8-0.2,4.1-0.3,6.9c-3.7-0.1-5.5-0.2-9.2-0.4
				c-0.2,5.7-0.4,8.5-0.6,14.2c-0.1,2.9,1.2,4.8,3.9,4.9c2.4,0.1,4-0.4,5.6-1.3c-0.1,2.6-0.2,3.9-0.3,6.6c-1.7,1.6-4.2,2.8-8,2.6
				c-6-0.2-10-4.5-9.7-11c0.3-6.5,0.4-9.8,0.7-16.3c-2.4-0.1-3.6-0.2-6-0.3c0.1-1.7,0.1-2.5,0.2-4.2c4.3-1.3,8.2-5.2,10.6-11.8
				c1.7,0.1,2.6,0.1,4.3,0.2C309.7,464,309.6,465.9,309.5,469.7z"/>
			<path id="XMLID_63_" class="st2" d="M350.3,474.8c0-1.5,0.1-2.2,0.1-3.7c3.3,0.1,5,0.1,8.3,0.2c-0.2,11-0.5,21.9-0.7,32.9
				c-3.4-0.1-5.1-0.1-8.4-0.2c0.1-2.2,0.1-3.3,0.1-5.5c-2.1,3.5-6,6.4-10.9,6.2c-8.1-0.2-14.8-6.7-14.4-17.7
				c0.4-11,7.5-17.3,16.1-17C344,470.1,347.9,472,350.3,474.8z M333,487.3c-0.2,5,3,9,8.1,9.2c4.4,0.1,8.8-3.4,8.9-9.3
				c0-1.9,0.1-2.8,0.1-4.7c-2.3-2.5-5-4.2-8.3-4.3C336.6,478,333.2,482.4,333,487.3z"/>
			<path id="XMLID_60_" class="st2" d="M420.3,504.9c-3.4,0-5.1,0-8.5,0c0-2.2,0-3.3,0-5.5c-2,3.5-5.8,6.5-10.8,6.5
				c-8.1-0.1-15-6.4-14.8-17.3c0.1-11,7.1-17.4,15.6-17.4c3.6,0,7.5,1.9,10,4.6c0-7.1,0-10.6,0-17.7c3.3,0,5,0,8.3,0
				C420.2,473.6,420.3,489.3,420.3,504.9z M394.9,488.6c0,5,3.2,9,8.3,9c4.4,0,8.7-3.6,8.6-9.5c0-1.9,0-2.8,0-4.7
				c-2.4-2.5-5.1-4.1-8.4-4.1C398.3,479.2,395,483.6,394.9,488.6z"/>
			<path id="XMLID_57_" class="st2" d="M464,488.1c0.2,9.7-7.9,17.5-17.7,17.6s-18-7.5-18-17.2c0-9.8,8-17.4,17.7-17.5
				S463.9,478.4,464,488.1z M437.2,488.5c0,6,4.3,9.3,9,9.2c4.8-0.1,9-3.4,8.9-9.4c-0.1-6-4.4-9.3-9.1-9.3
				C441.3,479.1,437.1,482.5,437.2,488.5z"/>
			<path id="XMLID_55_" class="st2" d="M516.3,472.7c0.1,3,0.2,4.6,0.3,7.6c-2.4-1.5-5.1-2.7-9.2-2.6c-5.1,0.2-9.2,4.3-9,9.6
				c0.2,5.3,4.2,9.1,9.6,8.9c4.1-0.1,6.8-1.5,9-3.2c0.1,3,0.2,4.5,0.3,7.6c-1.8,1.6-4.8,3.5-9.8,3.7c-10.1,0.3-17.9-7.5-18.1-16.7
				c-0.3-9.3,6.9-17.7,16.9-18C511.3,469.4,514.4,471.3,516.3,472.7z"/>
			<path id="XMLID_53_" class="st2" d="M554,488c0.5,8.8-5.7,14.5-14.4,14.9c-8.7,0.4-15.4-4.7-15.7-13.5
				c-0.3-7.8-0.5-11.8-0.8-19.6c3.4-0.1,5-0.2,8.4-0.4c0.3,7.2,0.5,10.9,0.9,18.1c0.2,5.1,3,7.5,6.9,7.3c3.9-0.2,6.4-2.9,6.2-7.9
				c-0.4-7.2-0.5-10.9-0.9-18.1c3.4-0.2,5.1-0.3,8.5-0.4C553.3,476.3,553.5,480.2,554,488z"/>
			<path id="XMLID_50_" class="st2" d="M597.4,482c0.8,10.9-5.8,18.1-14.4,18.7c-3.7,0.2-7.8-1.5-10.4-4.1
				c0.5,7.7,0.7,11.6,1.1,19.3c-3.4,0.2-5.1,0.3-8.5,0.5c-0.9-16.2-1.8-32.3-2.7-48.5c3.3-0.2,5-0.3,8.3-0.5
				c0.1,2.2,0.2,3.3,0.3,5.5c1.8-3.7,5.3-6.7,10.2-7C589.3,465.4,596.6,471,597.4,482z M571.8,484.2c0.1,1.9,0.2,2.8,0.3,4.7
				c2.5,2.3,5.4,3.9,8.7,3.7c5.2-0.3,8.2-5.2,7.9-10.1c-0.3-4.9-3.9-8.6-8.9-8.2C575.4,474.6,571.4,478.4,571.8,484.2z"/>
			<path id="XMLID_47_" class="st2" d="M616,464.4c0.8,10.9,1.7,21.9,2.5,32.8c-3.4,0.3-5.1,0.4-8.4,0.6
				c-0.8-10.3-1.1-15.5-1.9-25.8c-2.1,0.2-3.2,0.2-5.3,0.4c-0.2-2.8-0.3-4.2-0.5-7C607.8,465,610.5,464.8,616,464.4z M604.6,453.6
				c-0.2-3.1,2.1-5.8,5.3-6c3.1-0.2,5.9,2.1,6.2,5.2c0.2,3-2.2,5.8-5.3,6C607.5,459.1,604.8,456.6,604.6,453.6z"/>
			<path id="XMLID_44_" class="st2" d="M661,493.6c-3.4,0.3-5.1,0.5-8.4,0.8c-0.2-2.2-0.3-3.3-0.5-5.5c-1.7,3.7-5.2,7-10.2,7.4
				c-8,0.7-15.5-5-16.4-15.9c-0.9-11,5.5-18,14-18.8c3.6-0.3,7.7,1.2,10.4,3.7c-0.6-7.1-1-10.6-1.6-17.7c3.3-0.3,5-0.5,8.3-0.8
				C658.1,462.4,659.5,478,661,493.6z M634.2,479.6c0.4,4.9,4.1,8.6,9.1,8.2c4.4-0.4,8.3-4.4,7.7-10.3c-0.2-1.9-0.3-2.8-0.4-4.7
				c-2.6-2.3-5.5-3.6-8.7-3.3C636.7,470,633.8,474.7,634.2,479.6z"/>
			<path id="XMLID_4_" class="st2" d="M703.1,472.8c1.1,9.7-6.3,18.1-16.1,19.2c-9.7,1-18.6-5.8-19.6-15.5
				c-0.9-9.7,6.4-18.1,16-19.1S702,463.1,703.1,472.8z M676.3,475.6c0.6,6,5.1,8.9,9.9,8.4c4.8-0.5,8.6-4.2,8-10.2
				c-0.6-6-5.2-8.9-9.9-8.4C679.5,465.9,675.7,469.7,676.3,475.6z"/>
		</g>
	</g>
</g>
<g id="XMLID_31_">
</g>
<g id="XMLID_32_">
</g>
<g id="XMLID_33_">
</g>
<g id="XMLID_34_">
</g>
<g id="XMLID_35_">
</g>
<g id="XMLID_36_">
</g>
</svg>
