<?xml version="1.0" encoding="utf-8"?>
<!-- Generator: Adobe Illustrator 19.0.0, SVG Export Plug-In . SVG Version: 6.00 Build 0)  -->
<svg version="1.1" id="Layer_1" xmlns="http://www.w3.org/2000/svg" xmlns:xlink="http://www.w3.org/1999/xlink" x="0px" y="0px"
	 viewBox="0 0 433.4 179.6" style="enable-background:new 0 0 433.4 179.6;" xml:space="preserve">
<style type="text/css">
	.st0{fill:#FFFFFF;}
</style>
<g id="XMLID_67_">
	<g id="XMLID_99_">
		<path id="XMLID_119_" class="st0" d="M69.8,41.7c0,0-0.9-0.4-2.6-1.1c-1.7-0.7-4.3-1.5-7.6-2.3c-3.3-0.7-7.4-1.2-12-1.2
			c-4.6,0.1-9.8,1-15,2.9c-5.2,2-10.3,5.1-14.5,9.6C14,54.2,11.1,60,9.9,66.5C8.7,72.9,9.2,80,11.3,86.7c1,3.4,2.5,6.6,4.2,9.5
			c0.9,1.5,1.8,2.8,3,4.1l1.9,2.2c0.6,0.7,1.2,1.3,1.9,1.9c5.1,5.3,11.1,9.9,17.3,14c3.2,2.1,6.4,4,9.7,6c3.2,2,6.6,4.1,9.8,6.6
			c3,2.4,6,5.2,8.4,8.6c1.2,1.7,2.2,3.6,2.9,5.6c0.7,2,1.1,4,1.3,5.9l0.1,1.4l0,0.5l0,0.3l0,0.6c0,0.4,0,1,0,1.5
			c0,0.5-0.1,1-0.1,1.5c-0.2,1.9-0.6,3.7-1.2,5.5c-1.2,3.4-3,6.5-5.3,9c-1.1,1.2-2.3,2.4-3.6,3.3c-1.2,0.9-2.6,1.8-4,2.4
			c-2.7,1.3-5.5,2-8,2.3c-5.2,0.6-9.6-0.4-12.9-1.7c-3.4-1.3-5.7-2.9-7.2-4c-0.7-0.6-1.3-1-1.6-1.3c-0.4-0.3-0.5-0.5-0.5-0.5
			s0.8,0.5,2.5,1.3c1.6,0.8,4.1,1.9,7.4,2.5c3.3,0.7,7.4,0.9,11.7-0.2c4.3-1.1,8.7-3.6,11.7-7.8c3-4.2,4.7-9.9,3.5-15.5
			c-0.6-2.9-1.6-5.4-3.4-7.7c-1.8-2.3-4.3-4.4-7.2-6.5c-5.4-3.9-12.5-7.2-19.2-11.5c-6.8-4.2-13.5-9.2-19.4-15.2
			c-0.7-0.8-1.5-1.6-2.2-2.3l-1.9-2.2c-1.5-1.7-2.8-3.6-3.9-5.5c-2.3-3.8-3.9-7.8-5-11.9c-0.6-2.1-1-4.1-1.4-6.2
			C0.3,81.2,0.1,79.1,0,77c-0.1-4.2,0.2-8.3,1.2-12.3c1.8-8,6.2-15.2,11.7-20.2c2.8-2.5,5.7-4.6,8.8-6.2c3.1-1.6,6.2-2.8,9.2-3.6
			c6.1-1.6,11.9-1.8,16.9-1.2c5,0.5,9.2,1.8,12.4,3.1c3.3,1.3,5.7,2.7,7.3,3.7c0.8,0.5,1.4,0.9,1.8,1.2
			C69.6,41.6,69.8,41.7,69.8,41.7z"/>
	</g>
	<g id="XMLID_96_">
		<path id="XMLID_117_" class="st0" d="M81.8,42.8c0,0,0.6-0.6,1.7-1.8c1.1-1.1,2.9-2.8,5.3-4.5c2.4-1.8,5.6-3.8,9.5-5.5
			c2-0.9,4.1-1.6,6.4-2.4c2.3-0.7,4.8-1.3,7.5-1.7c2.7-0.4,5.5-0.6,8.5-0.4c0.7,0,1.5,0.1,2.3,0.2c0.8,0.1,1.5,0.3,2.3,0.4
			c0.8,0.2,1.5,0.4,2.3,0.6c0.7,0.2,1.5,0.5,2.2,0.7c0.4,0.1,0.7,0.2,1.1,0.4l1.2,0.5c0.8,0.4,1.6,0.7,2.3,1.1
			c0.7,0.4,1.5,0.8,2.2,1.2c0.7,0.4,1.4,0.9,2.1,1.4c2.8,2,5.4,4.3,7.6,7c4.6,5.3,8,11.8,10,18.8c0.5,1.8,0.9,3.6,1.2,5.4
			c0.2,0.9,0.3,1.8,0.4,2.8l0.1,1.4l0.1,0.7l0,0.2l0,0.2l0,0.1l0,0.3l0,1.3l0,0.6l0,0.7c0,1,0,2-0.1,3c-0.1,0.9-0.2,1.9-0.3,2.8
			c-0.1,0.9-0.3,1.9-0.5,2.8c-1.6,7.5-5.1,14.3-9.6,20c-2.2,2.9-4.6,5.5-7.2,7.8c-2.6,2.4-5.3,4.5-8.2,6.4c-0.4,0.2-0.7,0.5-1.2,0.7
			l-0.6,0.3l-0.6,0.3c-0.8,0.4-1.5,0.8-2.2,1.1c-1.3,0.7-2.6,1.4-4,2.1c-2.7,1.5-5.3,2.9-7.8,4.3c-5,2.8-9.8,5.4-13.5,8.2
			c-1.9,1.4-3.5,2.9-4.7,4.5c-1.3,1.7-2.3,3.4-3,5.2c-1.5,3.6-2.2,7-2.5,9.9c-0.2,1.4-0.2,2.7-0.3,3.9c0,1.1,0,2.1,0,2.9
			c0,1.6,0.1,2.4,0.1,2.4s-0.2-0.8-0.6-2.4c-0.3-1.6-0.9-3.9-1.1-6.9c-0.2-3-0.2-6.8,0.9-11.1c0.5-2.1,1.4-4.4,2.6-6.6
			c1.3-2.3,3-4.3,5-6.3c3.9-3.8,8.6-7,13.4-10.3c2.4-1.6,4.9-3.3,7.5-4.9c1.3-0.8,2.6-1.7,4.1-2.5c0.7-0.4,1.4-0.8,1.9-1.1l0.8-0.6
			l0.8-0.6c2.3-1.7,4.6-3.7,6.7-5.8c1.1-1.1,2.1-2.2,3.1-3.3c1-1.1,2-2.3,2.9-3.6c1.8-2.4,3.4-5.1,4.7-7.8c1.3-2.7,2.3-5.5,2.9-8.4
			c0.2-0.7,0.3-1.4,0.4-2.2c0.1-0.7,0.2-1.5,0.3-2.2c0.1-0.8,0.1-1.4,0.1-2.1c0-0.2,0-0.3,0-0.5l0-0.6l0-1.3l0-0.3l0-0.1
			c0-0.1,0,0.2,0,0.1l0-0.1l0-0.6l-0.1-1.1c0-0.7-0.1-1.5-0.3-2.2c-0.2-1.5-0.5-2.9-0.9-4.4c-0.7-2.9-1.8-5.7-3-8.4
			c-0.3-0.7-0.7-1.3-1-2c-0.4-0.6-0.7-1.3-1.1-1.9c-0.3-0.6-0.8-1.2-1.2-1.8c-0.4-0.6-0.8-1.2-1.2-1.7c-1.7-2.3-3.7-4.3-5.7-6
			c-0.5-0.4-1-0.9-1.6-1.3c-0.6-0.4-1.1-0.7-1.6-1.1c-0.6-0.4-1.1-0.6-1.6-0.9l-0.8-0.5c-0.2-0.2-0.6-0.3-1-0.4l-1-0.4l-0.5-0.2
			l-0.2-0.1l-0.1-0.1l-0.1,0c0.1,0-0.2-0.1,0.1,0c-0.6-0.2-1.2-0.4-1.8-0.6c-0.6-0.2-1.2-0.3-1.8-0.5c-0.6-0.1-1.2-0.3-1.8-0.4
			c-2.4-0.4-4.9-0.6-7.3-0.5c-2.4,0-4.7,0.3-6.9,0.7c-2.2,0.4-4.3,0.8-6.2,1.3c-3.9,1-7.1,2.3-9.8,3.6c-2.6,1.3-4.6,2.4-6,3.3
			C82.5,42.3,81.8,42.8,81.8,42.8z"/>
	</g>
	<g id="XMLID_93_">
		<path id="XMLID_115_" class="st0" d="M302.5,74.3c0,0,0.5,0.3,1.4,0.9c0.9,0.5,2.3,1.2,4.2,1.8c1.8,0.6,4.1,1,6.6,0.8
			c1.2-0.1,2.5-0.3,3.8-0.8c0.6-0.2,1.3-0.5,1.9-0.8c0.3-0.2,0.6-0.4,1-0.5c0.2-0.1,0.3-0.2,0.5-0.3l0.4-0.3c1.1-0.8,2.3-1.9,3.3-3
			c1-1.2,1.8-2.5,2.2-3.8c0.2-0.6,0.3-1.2,0.3-1.7c0-0.1,0-0.2,0-0.3c0-0.1,0-0.2-0.1-0.2c0,0,0-0.1,0-0.1l0,0l0,0
			c0.2,0.4,0,0.1,0.1,0.2l0,0c-0.1-0.2-0.3-0.6-0.2-0.4c0,0,0,0.1,0,0c0,0-0.1-0.1-0.1-0.1c0-0.1-0.2-0.1-0.2-0.2
			c-0.2-0.2-0.4-0.3-0.6-0.5c-0.5-0.3-1.2-0.7-1.9-1c-1.5-0.6-3.2-1-5-1.1c-1.8-0.1-3.6,0-5.3,0.3c-1.7,0.3-3.3,0.9-4.6,1.7l-1,0.8
			c-0.2,0.2-0.5,0.4-0.7,0.5c-0.1,0.1-0.2,0.2-0.3,0.4c-0.1,0.1-0.2,0.2-0.3,0.3c-0.1,0.1-0.2,0.2-0.4,0.4l-0.8,1
			c-2,2.8-3.2,6.4-3.5,10.1c-0.3,3.7,0.4,7.3,1.9,10.1l0.6,1c0.2,0.4,0.5,0.6,0.7,0.9l0.4,0.5l0.1,0.1l0,0c0.2,0.1-0.2-0.2-0.1-0.1
			l0.1,0.1l0.3,0.3l0.6,0.5l0.3,0.3c0.1,0.1,0.1,0.1,0.2,0.2c0.3,0.2,0.4,0.4,0.8,0.6c0.3,0.2,0.6,0.4,1,0.6c0.3,0.2,0.7,0.4,1,0.5
			c0.4,0.2,0.7,0.3,1.1,0.5c1.5,0.6,3.1,0.9,4.7,1.1c0.8,0.1,1.6,0.2,2.4,0.2c0.4,0,0.8,0,1.2,0l0.6,0l0.3,0l0.1,0l0.1,0l0,0
			c-0.3,0.1-0.1,0-0.1,0c0.4-0.1,0.8-0.1,1.3-0.2c0.4-0.1,0.9-0.1,1.2-0.2c0.6-0.2,1.3-0.3,1.9-0.5c0.3-0.1,0.7-0.2,1-0.3
			c0.3-0.1,0.6-0.3,0.9-0.4c0.6-0.3,1.2-0.6,1.8-0.9c2.3-1.2,4.1-2.8,5.4-4.1c1.4-1.4,2.4-2.6,3-3.4c0.6-0.9,1-1.4,1-1.4
			s-0.1,0.6-0.4,1.6c-0.4,1-0.9,2.6-1.9,4.4c-1,1.8-2.5,4-4.8,6c-0.6,0.5-1.2,1-1.8,1.5c-0.3,0.2-0.7,0.5-1,0.7
			c-0.4,0.2-0.7,0.4-1.1,0.7c-0.7,0.5-1.6,0.8-2.5,1.2c-0.5,0.2-0.8,0.3-1.2,0.5c-0.4,0.1-0.8,0.3-1.2,0.4l-0.9,0.2
			c-0.2,0.1-0.5,0.1-0.7,0.2c-0.5,0.1-1,0.2-1.5,0.3c-1,0.2-2,0.2-3.1,0.3c-2.1,0.1-4.3-0.1-6.6-0.6c-0.6-0.1-1.1-0.3-1.7-0.5
			c-0.6-0.2-1.1-0.4-1.7-0.6c-0.6-0.2-1.1-0.5-1.7-0.8c-0.6-0.3-1.2-0.7-1.8-1.1l-0.4-0.3l-0.3-0.2l-0.6-0.5l-0.3-0.2l-0.1-0.1
			l-0.2-0.2l0,0l-0.2-0.2l-0.7-0.7c-0.4-0.5-1-0.9-1.3-1.5c-0.4-0.5-0.8-1.1-1.2-1.6c-1.4-2.2-2.6-4.7-3.2-7.3l-0.3-1
			c-0.1-0.3-0.1-0.7-0.2-1c-0.1-0.7-0.2-1.3-0.3-2c-0.1-1.3-0.2-2.7-0.1-4c0.1-5.3,1.8-10.7,5-15.5l1.4-1.7c0.2-0.3,0.5-0.6,0.8-0.9
			l0.9-0.9l0.9-0.8c0.3-0.2,0.5-0.3,0.7-0.5l0.7-0.5l0.3-0.2l0.2-0.1c0.6-0.4,0.2-0.1,0.4-0.2l0.1,0l0.1-0.1
			c2.6-1.6,5.4-2.4,8.1-2.8c2.7-0.4,5.4-0.4,8,0c2.6,0.4,5.1,1.1,7.6,2.3c1.2,0.6,2.4,1.4,3.5,2.3c0.6,0.5,1.1,1,1.6,1.7
			c0.2,0.3,0.5,0.6,0.7,1l0.3,0.6c0.1,0.2,0.2,0.5,0.4,0.7c0.3,0.6,0.3,0.7,0.4,1l0.1,0.3l0,0.2l0.1,0.3l0.1,0.7
			c0.1,0.5,0.1,0.9,0.1,1.3c0,0.4,0,0.8-0.1,1.2c-0.2,1.6-0.7,2.9-1.3,4.1c-1.2,2.3-2.7,4-4.4,5.5c-1.7,1.4-3.4,2.5-5.2,3.4
			l-0.7,0.3c-0.3,0.1-0.5,0.2-0.7,0.3L323,81l-0.3,0.1l0,0c-0.2,0.1-0.1,0-0.1,0.1l-0.1,0l-0.2,0c-0.9,0.3-1.8,0.4-2.7,0.6
			c-1.8,0.2-3.5,0.1-5-0.1c-3.1-0.5-5.5-1.7-7.2-2.9c-1.8-1.2-2.9-2.4-3.7-3.2c-0.4-0.4-0.6-0.7-0.8-1
			C302.6,74.4,302.5,74.3,302.5,74.3z"/>
	</g>
	<g id="XMLID_90_">
		<path id="XMLID_101_" class="st0" d="M374.9,64.7c0,0-0.6-0.4-1.7-1.1c-1.1-0.7-2.8-1.6-5.1-2.3c-1.1-0.4-2.4-0.6-3.8-0.8
			c-1.4-0.1-2.9-0.2-4.4-0.1c-1.6,0.2-3.2,0.5-4.7,1.2c-0.4,0.1-0.8,0.3-1.1,0.5c-0.4,0.2-0.7,0.4-1.1,0.6l-0.3,0.2l-0.1,0l0,0
			c-0.1,0.1,0.2-0.1,0.1-0.1l-0.2,0.1l-0.6,0.5l-0.6,0.5c-0.2,0.2-0.3,0.3-0.4,0.4c-0.2,0.3-0.5,0.5-0.8,0.9c-0.3,0.4-0.5,0.7-0.8,1
			c-0.2,0.4-0.4,0.8-0.7,1.1c-0.2,0.4-0.4,0.8-0.5,1.2c-0.6,1.7-0.9,3.6-0.9,5.5c0.1,1.9,0.5,3.9,1.3,5.8c0.2,0.5,0.4,0.9,0.7,1.3
			c0.3,0.4,0.5,0.8,0.8,1.3l0.8,1c0.4,0.5,0.9,1,1.4,1.4c0.3,0.2,0.7,0.5,1,0.8c0.4,0.3,0.9,0.6,1.3,0.9l1.4,0.8l1.5,0.6
			c2,0.8,4.3,1.2,6.5,1.3c2.2,0.1,4.4-0.3,6.2-0.9c0.2-0.1,0.4-0.2,0.6-0.3c0.2-0.1,0.4-0.2,0.6-0.3c0.2-0.1,0.3-0.2,0.5-0.3
			l0.1-0.1c0.2-0.1-0.2,0.2-0.1,0.1l0,0l0.1-0.1l0.4-0.3c0.1-0.1,0.1-0.1,0.1-0.1l0,0c0,0,0,0,0.1-0.1c0.1-0.1,0.2-0.2,0.3-0.4
			c0.2-0.2,0.3-0.5,0.4-0.8c0.5-1.3,0.6-3.7,0.4-6.2c-0.2-2.5-0.6-5.3-1-8c-0.4-2.8-0.7-5.6-0.9-8.4c-0.2-2.8-0.4-5.6-0.3-8.5
			c0-0.7,0-1.3,0-2c0-0.7,0.1-1.4,0.1-2.1c0-1.4,0.2-2.7,0.3-4.1c0.3-2.6,0.6-5.2,1.2-7.7c1-5,2.3-9.5,3.8-13.6
			c0.7-2.1,1.6-4,2.3-5.8c0.8-1.8,1.6-3.5,2.4-5c0.8-1.6,1.6-3,2.3-4.3c0.8-1.3,1.5-2.5,2.1-3.6c1.3-2.1,2.5-3.7,3.2-4.8
			c0.8-1.1,1.2-1.7,1.2-1.7s-0.2,0.7-0.7,1.9c-0.2,0.6-0.5,1.4-0.9,2.3c-0.3,0.9-0.7,1.9-1.1,3.1c-0.4,1.2-0.9,2.4-1.3,3.9
			c-0.2,0.7-0.5,1.4-0.7,2.2c-0.2,0.8-0.5,1.6-0.7,2.4c-1,3.3-1.9,6.9-2.8,11c-0.8,4-1.5,8.4-1.9,13.1c-0.2,2.3-0.3,4.7-0.4,7.1
			c0,1.2,0,2.5,0,3.7c0,0.6,0,1.2,0.1,1.8c0,0.7,0.1,1.3,0.1,2c0.2,2.4,0.4,5,0.8,7.6c0.4,2.6,0.8,5.2,1.2,8c0.4,2.7,1,5.5,1.2,8.6
			c0.1,1.5,0.2,3.1,0.2,4.9c-0.1,1.7-0.3,3.6-1,5.6c-0.4,1-0.8,2-1.5,2.9c-0.3,0.5-0.7,0.9-1,1.3c-0.4,0.4-0.9,1-1.3,1.3l-0.4,0.3
			l-0.4,0.3l-0.3,0.2l-1.3,0.9c-0.4,0.3-0.9,0.5-1.3,0.7c-0.4,0.2-0.9,0.4-1.3,0.6c-3.5,1.3-7,1.6-10.3,1.4c-3.3-0.2-6.5-1-9.5-2.4
			c-0.7-0.4-1.5-0.7-2.2-1.1c-0.7-0.4-1.4-0.9-2.1-1.3c-0.7-0.5-1.3-1-2-1.5c-0.7-0.6-1.3-1.3-1.9-1.9c-0.4-0.5-0.8-1-1.2-1.5
			L344,89l-0.1-0.1l-0.2-0.3l-0.3-0.5l-0.7-1c-0.4-0.7-0.7-1.4-1.1-2.1c-0.3-0.7-0.6-1.5-0.8-2.2c-0.9-2.9-1.3-6-1-8.9
			c0.2-2.9,1-5.7,2.3-8.1c0.4-0.6,0.7-1.2,1.1-1.8c0.4-0.5,0.8-1.1,1.2-1.6c0.4-0.5,0.9-1,1.4-1.4c0.4-0.5,1.1-0.9,1.6-1.3
			c0.3-0.2,0.6-0.4,0.8-0.6l0.7-0.4l0.7-0.4l0.2-0.1c0,0,0.3-0.2,0.2-0.1l0.1,0l0.1,0l0.4-0.2c0.5-0.2,1.1-0.5,1.6-0.6
			c0.5-0.2,1.1-0.3,1.6-0.4c2.2-0.5,4.2-0.6,6.1-0.4c1.9,0.2,3.6,0.6,5.1,1.1c1.5,0.6,2.8,1.2,3.9,1.8c2.2,1.3,3.7,2.7,4.6,3.7
			c0.5,0.5,0.8,0.9,1,1.2C374.8,64.6,374.9,64.7,374.9,64.7z"/>
	</g>
	<g id="XMLID_87_">
		<path id="XMLID_98_" class="st0" d="M232.6,9.3c0,0,0,0.5,0,1.6c0,1-0.1,2.5-0.2,4.4c-0.2,3.7-0.5,9.1-0.8,15.5
			c-0.2,3.2-0.3,6.6-0.5,10.3c-0.2,3.6-0.3,7.5-0.4,11.4c0,2-0.1,4-0.1,6c0,1,0,2,0,3.1l0,1.5l0,1.5c0,2.1,0,4.2,0,6.3
			c0,2.1,0,4.1,0.1,6.2c0.1,4.1,0.3,8.3,0.7,12.3c0.1,1,0.2,2,0.4,2.9c0.1,1,0.2,2,0.4,2.9c0.2,0.9,0.3,1.9,0.5,2.8
			c0.2,0.9,0.4,1.8,0.7,2.6c0.5,1.7,1.1,3.2,1.8,4.4c0.3,0.6,0.7,1.1,1.1,1.5c0.2,0.2,0.3,0.3,0.5,0.5l0.2,0.1l0,0
			c-0.2-0.1,0,0-0.1,0l0.1,0l0.1,0.1l0.5,0.3c0.2,0.1,0.5,0.3,0.8,0.4c0.3,0.1,0.6,0.3,1,0.4c0.6,0.2,1.3,0.4,2,0.5
			c1.3,0.2,2.6,0.2,3.8,0c0.3,0,0.6-0.1,0.9-0.2l0.4-0.2l0.1,0l0.1,0l0,0c0,0-0.2,0.1-0.1,0.1l0.3-0.1c0.3-0.2,0.7-0.4,0.9-0.5
			c0.2-0.1,0.4-0.2,0.6-0.4c0.9-0.7,1.7-1.6,2.3-2.5c1.3-1.9,2-4,2.4-5.7c0.4-1.8,0.5-3.2,0.6-4.2c0-1,0.1-1.6,0.1-1.6
			s0.2,0.5,0.5,1.5c0.3,1,0.7,2.5,0.8,4.4c0.1,2,0.1,4.5-0.9,7.3c-0.5,1.4-1.3,2.9-2.4,4.3c-0.5,0.7-1.5,1.5-2,1.9
			c-0.9,0.7-1.7,1.1-2.6,1.6c-1.9,0.8-4,1.2-6.1,1.3c-1.1,0-2.1-0.1-3.2-0.3c-0.5-0.1-1.1-0.2-1.6-0.4c-0.5-0.2-1.1-0.3-1.7-0.6
			l-0.7-0.3l-0.2-0.1l-0.1,0c-0.1,0,0.1,0-0.1-0.1l-0.1,0l-0.4-0.2c-0.6-0.3-1.2-0.7-1.7-1.2c-1.1-0.9-1.9-1.8-2.7-2.8
			c-0.7-1-1.4-2-1.9-3c-0.6-1-1-2.1-1.4-3.1c-0.4-1.1-0.8-2.1-1.1-3.2c-0.3-1.1-0.6-2.1-0.9-3.2c-0.5-2.2-1-4.3-1.2-6.5
			c-0.7-4.4-0.9-8.8-1.1-13.2c0-2.2,0-4.4,0-6.6c0-2.2,0.2-4.3,0.2-6.4c0.1-2.2,0.3-4.3,0.4-6.4c0.2-2.1,0.4-4.2,0.6-6.2
			c1-8.1,2.4-15.6,4-21.9c1.6-6.3,3.3-11.5,4.6-15c0.6-1.8,1.2-3.2,1.6-4.1C232.4,9.8,232.6,9.3,232.6,9.3z"/>
	</g>
	<g id="XMLID_84_">
		<path id="XMLID_95_" class="st0" d="M268.3,6c0,0,0,0.5,0,1.6c0,1-0.1,2.5-0.2,4.4c-0.2,3.7-0.5,9.1-0.8,15.5
			c-0.2,3.2-0.3,6.6-0.5,10.3c-0.2,3.6-0.3,7.5-0.4,11.4c0,2-0.1,4-0.1,6c0,1,0,2,0,3.1l0,1.5l0,1.5c0,2.1,0,4.2,0,6.3
			c0,2.1,0,4.1,0.1,6.2c0.1,4.1,0.3,8.3,0.7,12.3c0.1,1,0.2,2,0.4,2.9c0.1,1,0.2,2,0.4,2.9c0.2,0.9,0.3,1.9,0.5,2.8
			c0.2,0.9,0.4,1.8,0.7,2.6c0.5,1.7,1.1,3.2,1.8,4.4c0.3,0.6,0.7,1.1,1.1,1.5c0.2,0.2,0.3,0.3,0.5,0.5l0.2,0.1l0,0
			c-0.2-0.1,0,0-0.1,0l0.1,0l0.1,0.1l0.5,0.3c0.2,0.1,0.5,0.3,0.8,0.4c0.3,0.1,0.6,0.3,1,0.4c0.6,0.2,1.3,0.4,2,0.5
			c1.3,0.2,2.6,0.2,3.8,0c0.3,0,0.6-0.1,0.9-0.2l0.4-0.2l0.1,0l0.1,0l0,0c0,0-0.2,0.1-0.1,0.1l0.3-0.1c0.3-0.2,0.7-0.4,0.9-0.5
			c0.2-0.1,0.4-0.2,0.6-0.4c0.9-0.7,1.7-1.6,2.3-2.5c1.3-1.9,2-4,2.4-5.7c0.4-1.8,0.5-3.2,0.6-4.2c0-1,0.1-1.6,0.1-1.6
			s0.2,0.5,0.5,1.5c0.3,1,0.7,2.5,0.8,4.4c0.1,2,0.1,4.5-0.9,7.3c-0.5,1.4-1.3,2.9-2.4,4.3c-0.5,0.7-1.5,1.5-2,1.9
			c-0.9,0.7-1.7,1.1-2.6,1.6c-1.9,0.8-4,1.2-6.1,1.3c-1.1,0-2.1-0.1-3.2-0.3c-0.5-0.1-1.1-0.2-1.6-0.4c-0.5-0.2-1.1-0.3-1.7-0.6
			l-0.7-0.3l-0.2-0.1l-0.1,0c-0.1,0,0.1,0-0.1-0.1l-0.1,0l-0.4-0.2c-0.6-0.3-1.2-0.7-1.7-1.2c-1.1-0.9-1.9-1.8-2.7-2.8
			c-0.7-1-1.4-2-1.9-3c-0.6-1-1-2.1-1.4-3.1c-0.4-1.1-0.8-2.1-1.1-3.2c-0.3-1.1-0.6-2.1-0.9-3.2c-0.5-2.2-1-4.3-1.2-6.5
			c-0.7-4.4-0.9-8.8-1.1-13.2c0-2.2,0-4.4,0-6.6c0-2.2,0.2-4.3,0.2-6.4c0.1-2.2,0.3-4.3,0.4-6.4c0.2-2.1,0.4-4.2,0.6-6.2
			c1-8.1,2.4-15.6,4-21.9c1.6-6.3,3.3-11.5,4.6-15c0.6-1.8,1.2-3.2,1.6-4.1C268.1,6.5,268.3,6,268.3,6z"/>
	</g>
	<g id="XMLID_73_">
		<g id="XMLID_81_">
			<path id="XMLID_92_" class="st0" d="M179.5,38.1c0,0,0.2-0.1,0.7-0.1c0.5-0.1,1.2-0.1,2.1-0.2c1.9-0.2,4.6-0.4,8-0.7
				c6.9-0.6,16.8-1.3,28.6-2.2c11.8-0.9,25.7-1.9,40.5-3c7.4-0.6,15-1.1,22.8-1.9c7.7-0.8,15.6-1.6,23.5-2.6
				c7.8-1,15.7-1.9,23.4-3.1c7.7-1.1,15.3-2.2,22.6-3.3c3.7-0.5,7.3-1,10.8-1.5c3.5-0.5,7-1,10.4-1.4c3.4-0.4,6.7-0.8,9.9-1.1
				c3.2-0.3,6.3-0.5,9.3-0.7c6-0.3,11.5-0.3,16.4-0.2c2.4,0.1,4.7,0.2,6.8,0.3c2.1,0.2,4,0.4,5.8,0.5c3.5,0.4,6.2,0.7,8,1.1
				c1.8,0.3,2.8,0.5,2.8,0.5l-0.1,0.7c0,0-1,0-2.9,0.1c-0.9,0-2.1,0-3.4,0.1c-1.3,0-2.9,0.1-4.6,0.2c-3.5,0.2-7.6,0.3-12.4,0.7
				c-2.4,0.2-4.9,0.4-7.6,0.7c-2.7,0.3-5.5,0.6-8.4,1c-2.9,0.4-5.9,0.8-9.1,1.3c-3.1,0.5-6.4,1-9.7,1.6c-6.6,1.2-13.8,2.4-21.2,3.5
				c-7.4,1-15,1.8-22.8,2.6c-7.8,0.7-15.7,1.5-23.6,2.1c-7.9,0.7-15.8,1.3-23.6,1.8c-7.8,0.5-15.5,0.9-22.9,1.2
				c-7.4,0.3-14.6,0.6-21.4,0.8c-6.8,0.2-13.2,0.4-19.2,0.6c-11.9,0.4-21.8,0.7-28.7,0.9c-3.5,0.1-6.2,0.2-8,0.3
				c-0.9,0.1-1.6,0.1-2.1,0.1c-0.4,0-0.7,0.1-0.7,0.1L179.5,38.1z"/>
		</g>
		<path id="XMLID_80_" class="st0" d="M402,9c-0.9,2,8.7,4.5,8.3,11.4c-0.4,6.9-7.7,9.8-7.2,10.9c0.9,1.8,14.9-6.7,28.8-11.6
			C441.1,16.4,403.4,5.8,402,9z"/>
		<g id="XMLID_77_">
			<path id="XMLID_89_" class="st0" d="M184.7,27.2c0.7,0.2,1.3,0.5,1.9,0.7c0.6,0.3,1.2,0.5,1.7,0.8c1.1,0.6,2.2,1.3,3.2,2
				c0.5,0.4,1,0.7,1.5,1.1c0.5,0.4,0.9,0.8,1.4,1.2c0.9,0.8,1.8,1.6,2.6,2.5l1.8,1.9l-1.6,2.1c-0.7,1-1.5,1.9-2.3,2.8
				c-0.4,0.4-0.8,0.9-1.3,1.3c-0.4,0.4-0.9,0.8-1.3,1.3c-0.5,0.4-0.9,0.8-1.4,1.2c-0.5,0.4-1,0.8-1.5,1.1c-0.5,0.4-1,0.7-1.6,1
				c-0.6,0.3-1.1,0.7-1.8,0.9c0.1-0.7,0.3-1.3,0.4-1.9c0.2-0.6,0.4-1.2,0.6-1.8c0.2-0.6,0.5-1.2,0.7-1.7c0.2-0.6,0.5-1.1,0.8-1.7
				c0.3-0.5,0.6-1.1,0.9-1.6c0.3-0.5,0.6-1,0.9-1.6c0.6-1,1.3-2,2.1-3l0.2,3.9c-0.8-0.9-1.6-1.8-2.4-2.7c-0.4-0.5-0.8-0.9-1.1-1.4
				c-0.4-0.5-0.7-1-1.1-1.5c-0.7-1-1.3-2.1-1.9-3.2c-0.3-0.6-0.6-1.1-0.8-1.7C185.1,28.4,184.9,27.8,184.7,27.2z"/>
		</g>
		<g id="XMLID_74_">
			<path id="XMLID_79_" class="st0" d="M200.2,26.2c0.7,0.2,1.3,0.5,1.9,0.7c0.6,0.3,1.2,0.5,1.7,0.8c1.1,0.6,2.2,1.3,3.2,2
				c0.5,0.4,1,0.7,1.5,1.1c0.5,0.4,0.9,0.8,1.4,1.2c0.9,0.8,1.8,1.6,2.6,2.5l1.8,1.9l-1.6,2.1c-0.7,1-1.5,1.9-2.3,2.8
				c-0.4,0.4-0.8,0.9-1.3,1.3c-0.4,0.4-0.9,0.8-1.3,1.3c-0.5,0.4-0.9,0.8-1.4,1.2c-0.5,0.4-1,0.8-1.5,1.1c-0.5,0.4-1,0.7-1.6,1
				c-0.6,0.3-1.1,0.7-1.8,0.9c0.1-0.7,0.3-1.3,0.4-1.9c0.2-0.6,0.4-1.2,0.6-1.8c0.2-0.6,0.5-1.2,0.7-1.7c0.2-0.6,0.5-1.1,0.8-1.7
				c0.3-0.5,0.6-1.1,0.9-1.6c0.3-0.5,0.6-1,0.9-1.6c0.6-1,1.3-2,2.1-3l0.2,3.9c-0.8-0.9-1.6-1.8-2.4-2.7c-0.4-0.5-0.8-0.9-1.1-1.4
				c-0.4-0.5-0.7-1-1.1-1.5c-0.7-1-1.3-2.1-1.9-3.2c-0.3-0.6-0.6-1.1-0.8-1.7C200.6,27.5,200.3,26.9,200.2,26.2z"/>
		</g>
	</g>
	<g id="XMLID_68_">
		<path id="XMLID_83_" class="st0" d="M179.7,107c0,0-0.5-0.2-1.3-0.6c-0.4-0.2-1-0.5-1.6-0.8c-0.3-0.2-0.7-0.4-1-0.6
			c-0.3-0.2-0.7-0.5-1.1-0.7c-1.5-1.1-3.3-2.5-4.9-4.5c-1.7-2-3.3-4.5-4.4-7.6c-1.1-3.1-1.5-6.9-0.8-10.8c0.1-0.5,0.2-1,0.3-1.4
			l0.2-0.7l0.1-0.4l0.2-0.4c0.3-0.9,0.6-1.7,1.1-2.7c0.2-0.5,0.5-1,0.8-1.5c0.3-0.5,0.6-0.9,0.8-1.4c0.3-0.5,0.6-0.9,1-1.3
			c0.3-0.4,0.6-0.9,1-1.3c1.5-1.7,3.2-3.1,5.1-4.4c1.9-1.2,4.1-2.1,6.4-2.8c2.3-0.6,4.7-0.9,7.1-0.9c2.4,0.1,4.8,0.5,7.2,1.2
			l1.6,0.6c0.3,0.1,0.4,0.1,0.8,0.3l0.9,0.4c1.3,0.6,2.3,1.2,3.3,1.9c2,1.4,3.9,3.1,5.5,5c1.5,1.9,2.9,4.1,3.8,6.4
			c0.9,2.3,1.5,4.7,1.7,7.1c0.1,2.4,0,4.8-0.6,7c-0.2,1.1-0.7,2.2-1,3.3l-0.1,0.2l0,0.1l0,0c0,0-0.2,0.5-0.1,0.3l-0.2,0.3l-0.3,0.6
			l-0.3,0.6c-0.1,0.2-0.2,0.4-0.4,0.7c-0.6,1-1.2,2.1-1.9,2.8c-0.3,0.4-0.7,0.8-1,1.2c-0.4,0.4-0.7,0.7-1.1,1.1
			c-1.5,1.4-3.1,2.4-4.7,3.3c-3.3,1.6-6.5,2.3-9.2,2.5c-2.8,0.2-5.1-0.1-6.9-0.4c-0.5-0.1-0.9-0.2-1.3-0.3c-0.4-0.1-0.8-0.2-1.1-0.3
			c-0.7-0.2-1.3-0.4-1.7-0.5C180.2,107.2,179.7,107,179.7,107L179.7,107z M180,106.1c0,0,0.5,0.1,1.4,0.4c0.2,0.1,0.5,0.1,0.8,0.2
			c0.3,0,0.6,0.1,0.9,0.1c0.3,0,0.7,0.1,1.1,0.1c0.4,0,0.8,0,1.2,0c1.7-0.1,3.8-0.4,6-1.4c2.1-1,4.3-2.5,6-4.5
			c0.8-1,1.7-2.1,2.3-3.2c0.2-0.3,0.3-0.6,0.5-0.9c0.1-0.3,0.3-0.6,0.4-0.9c0.4-0.6,0.5-1.1,0.7-1.7c0.1-0.1,0.1-0.3,0.2-0.5
			l0.2-0.6l0.2-0.6l0.1-0.3c0.1-0.2-0.1,0.3-0.1,0.2l0,0l0-0.1l0-0.1c0.2-0.7,0.4-1.3,0.4-2c0.3-1.4,0.3-2.8,0.2-4.2
			c-0.1-1.4-0.4-2.9-0.7-4.4c-0.4-1.4-1.1-2.9-1.9-4.2c-0.8-1.3-1.9-2.6-3.1-3.7l-1-0.8c-0.3-0.3-0.6-0.4-0.9-0.6l-0.5-0.3
			c-0.1-0.1-0.4-0.2-0.6-0.3l-0.7-0.3l-0.3-0.2l-0.2-0.1l-0.1,0l0,0c0.1,0-0.2-0.1,0.1,0.1c-1.6-0.6-3.2-1.1-4.9-1.3
			c-1.7-0.1-3.4-0.1-5,0.2c-1.7,0.3-3.3,0.9-4.8,1.6c-1.5,0.8-2.9,1.7-4.1,2.8c-0.3,0.3-0.6,0.6-0.9,0.9c-0.3,0.3-0.6,0.6-0.8,0.9
			l-0.8,1c-0.2,0.3-0.4,0.6-0.6,1c-0.4,0.5-0.8,1.5-1.2,2.3l-0.1,0.2l0,0.1l0,0c0,0,0.1-0.2,0-0.1l-0.1,0.3l-0.2,0.6
			c-0.1,0.4-0.3,0.7-0.4,1.1c-1,3-1.2,6.1-0.9,9c0.4,2.9,1.4,5.5,2.7,7.5c1.3,2.1,2.9,3.6,4.3,4.6c0.4,0.3,0.7,0.5,1,0.7
			c0.3,0.2,0.7,0.4,1,0.5c0.3,0.2,0.6,0.3,0.8,0.4c0.3,0.1,0.5,0.2,0.7,0.3C179.6,105.9,180,106.1,180,106.1L180,106.1z"/>
	</g>
</g>
</svg>
