<svg id="Layer_1" xmlns="http://www.w3.org/2000/svg" viewBox="0 0 433.4 179.6"><style>.st0{fill:#FFFFFF;}</style><g id="XMLID_67_"><g id="XMLID_99_"><path id="XMLID_119_" class="st0" d="M69.8 41.7s-.9-.4-2.6-1.1c-1.7-.7-4.3-1.5-7.6-2.3-3.3-.7-7.4-1.2-12-1.2-4.6.1-9.8 1-15 2.9-5.2 2-10.3 5.1-14.5 9.6-4.1 4.6-7 10.4-8.2 16.9-1.2 6.4-.7 13.5 1.4 20.2 1 3.4 2.5 6.6 4.2 9.5.9 1.5 1.8 2.8 3 4.1l1.9 2.2c.6.7 1.2 1.3 1.9 1.9 5.1 5.3 11.1 9.9 17.3 14 3.2 2.1 6.4 4 9.7 6 3.2 2 6.6 4.1 9.8 6.6 3 2.4 6 5.2 8.4 8.6 1.2 1.7 2.2 3.6 2.9 5.6.7 2 1.1 4 1.3 5.9l.1 1.4v2.9c0 .5-.1 1-.1 1.5-.2 1.9-.6 3.7-1.2 5.5-1.2 3.4-3 6.5-5.3 9-1.1 1.2-2.3 2.4-3.6 3.3-1.2.9-2.6 1.8-4 2.4-2.7 1.3-5.5 2-8 2.3-5.2.6-9.6-.4-12.9-1.7-3.4-1.3-5.7-2.9-7.2-4-.7-.6-1.3-1-1.6-1.3-.4-.3-.5-.5-.5-.5s.8.5 2.5 1.3c1.6.8 4.1 1.9 7.4 2.5 3.3.7 7.4.9 11.7-.2 4.3-1.1 8.7-3.6 11.7-7.8 3-4.2 4.7-9.9 3.5-15.5-.6-2.9-1.6-5.4-3.4-7.7-1.8-2.3-4.3-4.4-7.2-6.5-5.4-3.9-12.5-7.2-19.2-11.5-6.8-4.2-13.5-9.2-19.4-15.2-.7-.8-1.5-1.6-2.2-2.3l-1.9-2.2c-1.5-1.7-2.8-3.6-3.9-5.5-2.3-3.8-3.9-7.8-5-11.9-.6-2.1-1-4.1-1.4-6.2-.3-2-.5-4.1-.6-6.2-.1-4.2.2-8.3 1.2-12.3 1.8-8 6.2-15.2 11.7-20.2 2.8-2.5 5.7-4.6 8.8-6.2 3.1-1.6 6.2-2.8 9.2-3.6 6.1-1.6 11.9-1.8 16.9-1.2 5 .5 9.2 1.8 12.4 3.1 3.3 1.3 5.7 2.7 7.3 3.7.8.5 1.4.9 1.8 1.2.3.1.5.2.5.2z"/></g><g id="XMLID_96_"><path id="XMLID_117_" class="st0" d="M81.8 42.8s.6-.6 1.7-1.8c1.1-1.1 2.9-2.8 5.3-4.5 2.4-1.8 5.6-3.8 9.5-5.5 2-.9 4.1-1.6 6.4-2.4 2.3-.7 4.8-1.3 7.5-1.7 2.7-.4 5.5-.6 8.5-.4.7 0 1.5.1 2.3.2.8.1 1.5.3 2.3.4.8.2 1.5.4 2.3.6.7.2 1.5.5 2.2.7.4.1.7.2 1.1.4l1.2.5c.8.4 1.6.7 2.3 1.1.7.4 1.5.8 2.2 1.2.7.4 1.4.9 2.1 1.4 2.8 2 5.4 4.3 7.6 7 4.6 5.3 8 11.8 10 18.8.5 1.8.9 3.6 1.2 5.4.2.9.3 1.8.4 2.8l.1 1.4.1.7v3.4c0 1 0 2-.1 3-.1.9-.2 1.9-.3 2.8-.1.9-.3 1.9-.5 2.8-1.6 7.5-5.1 14.3-9.6 20-2.2 2.9-4.6 5.5-7.2 7.8-2.6 2.4-5.3 4.5-8.2 6.4-.4.2-.7.5-1.2.7l-.6.3-.6.3c-.8.4-1.5.8-2.2 1.1-1.3.7-2.6 1.4-4 2.1-2.7 1.5-5.3 2.9-7.8 4.3-5 2.8-9.8 5.4-13.5 8.2-1.9 1.4-3.5 2.9-4.7 4.5-1.3 1.7-2.3 3.4-3 5.2-1.5 3.6-2.2 7-2.5 9.9-.2 1.4-.2 2.7-.3 3.9v2.9c0 1.6.1 2.4.1 2.4l-.6-2.4c-.3-1.6-.9-3.9-1.1-6.9-.2-3-.2-6.8.9-11.1.5-2.1 1.4-4.4 2.6-6.6 1.3-2.3 3-4.3 5-6.3 3.9-3.8 8.6-7 13.4-10.3 2.4-1.6 4.9-3.3 7.5-4.9 1.3-.8 2.6-1.7 4.1-2.5.7-.4 1.4-.8 1.9-1.1l.8-.6.8-.6c2.3-1.7 4.6-3.7 6.7-5.8 1.1-1.1 2.1-2.2 3.1-3.3 1-1.1 2-2.3 2.9-3.6 1.8-2.4 3.4-5.1 4.7-7.8 1.3-2.7 2.3-5.5 2.9-8.4.2-.7.3-1.4.4-2.2.1-.7.2-1.5.3-2.2.1-.8.1-1.4.1-2.1v-2.8.1-.7l-.1-1.1c0-.7-.1-1.5-.3-2.2-.2-1.5-.5-2.9-.9-4.4-.7-2.9-1.8-5.7-3-8.4-.3-.7-.7-1.3-1-2-.4-.6-.7-1.3-1.1-1.9-.3-.6-.8-1.2-1.2-1.8-.4-.6-.8-1.2-1.2-1.7-1.7-2.3-3.7-4.3-5.7-6-.5-.4-1-.9-1.6-1.3-.6-.4-1.1-.7-1.6-1.1-.6-.4-1.1-.6-1.6-.9l-.8-.5c-.2-.2-.6-.3-1-.4l-1-.4-.5-.2-.2-.1-.1-.1h-.1c.1 0-.2-.1.1 0l-1.8-.6c-.6-.2-1.2-.3-1.8-.5-.6-.1-1.2-.3-1.8-.4-2.4-.4-4.9-.6-7.3-.5-2.4 0-4.7.3-6.9.7-2.2.4-4.3.8-6.2 1.3-3.9 1-7.1 2.3-9.8 3.6-2.6 1.3-4.6 2.4-6 3.3-1.3.9-2 1.4-2 1.4z"/></g><g id="XMLID_93_"><path id="XMLID_115_" class="st0" d="M302.5 74.3s.5.3 1.4.9c.9.5 2.3 1.2 4.2 1.8 1.8.6 4.1 1 6.6.8 1.2-.1 2.5-.3 3.8-.8.6-.2 1.3-.5 1.9-.8.3-.2.6-.4 1-.5.2-.1.3-.2.5-.3l.4-.3c1.1-.8 2.3-1.9 3.3-3 1-1.2 1.8-2.5 2.2-3.8.2-.6.3-1.2.3-1.7v-.3c0-.1 0-.2-.1-.2V66c.2.4 0 .1.1.2l-.2-.4s0 .1 0 0l-.1-.1c0-.1-.2-.1-.2-.2-.2-.2-.4-.3-.6-.5-.5-.3-1.2-.7-1.9-1-1.5-.6-3.2-1-5-1.1-1.8-.1-3.6 0-5.3.3-1.7.3-3.3.9-4.6 1.7l-1 .8c-.2.2-.5.4-.7.5-.1.1-.2.2-.3.4l-.3.3-.4.4-.8 1c-2 2.8-3.2 6.4-3.5 10.1-.3 3.7.4 7.3 1.9 10.1l.6 1c.2.4.5.6.7.9l.4.5.1.1c.2.1-.2-.2-.1-.1l.1.1.3.3.6.5.3.3.2.2c.3.2.4.4.8.6.3.2.6.4 1 .6.3.2.7.4 1 .5.4.2.7.3 1.1.5 1.5.6 3.1.9 4.7 1.1.8.1 1.6.2 2.4.2h2.3c-.3.1-.1 0-.1 0 .4-.1.8-.1 1.3-.2.4-.1.9-.1 1.2-.2.6-.2 1.3-.3 1.9-.5.3-.1.7-.2 1-.3.3-.1.6-.3.9-.4l1.8-.9c2.3-1.2 4.1-2.8 5.4-4.1 1.4-1.4 2.4-2.6 3-3.4.6-.9 1-1.4 1-1.4s-.1.6-.4 1.6c-.4 1-.9 2.6-1.9 4.4-1 1.8-2.5 4-4.8 6l-1.8 1.5c-.3.2-.7.5-1 .7-.4.2-.7.4-1.1.7-.7.5-1.6.8-2.5 1.2-.5.2-.8.3-1.2.5-.4.1-.8.3-1.2.4l-.9.2c-.2.1-.5.1-.7.2l-1.5.3c-1 .2-2 .2-3.1.3-2.1.1-4.3-.1-6.6-.6-.6-.1-1.1-.3-1.7-.5-.6-.2-1.1-.4-1.7-.6-.6-.2-1.1-.5-1.7-.8-.6-.3-1.2-.7-1.8-1.1l-.4-.3-.3-.2-.6-.5-.3-.2-.1-.1-.2-.2-.2-.2-.7-.7c-.4-.5-1-.9-1.3-1.5-.4-.5-.8-1.1-1.2-1.6-1.4-2.2-2.6-4.7-3.2-7.3l-.3-1c-.1-.3-.1-.7-.2-1-.1-.7-.2-1.3-.3-2-.1-1.3-.2-2.7-.1-4 .1-5.3 1.8-10.7 5-15.5l1.4-1.7c.2-.3.5-.6.8-.9l.9-.9.9-.8c.3-.2.5-.3.7-.5l.7-.5.3-.2.2-.1c.6-.4.2-.1.4-.2h.1l.1-.1c2.6-1.6 5.4-2.4 8.1-2.8 2.7-.4 5.4-.4 8 0 2.6.4 5.1 1.1 7.6 2.3 1.2.6 2.4 1.4 3.5 2.3.6.5 1.1 1 1.6 1.7.2.3.5.6.7 1l.3.6c.1.2.2.5.4.7.3.6.3.7.4 1l.1.3v.2l.1.3.1.7c.1.5.1.9.1 1.3s0 .8-.1 1.2c-.2 1.6-.7 2.9-1.3 4.1-1.2 2.3-2.7 4-4.4 5.5-1.7 1.4-3.4 2.5-5.2 3.4l-.7.3c-.3.1-.5.2-.7.3H323l-.3.1c-.2.1-.1 0-.1.1h-.3c-.9.3-1.8.4-2.7.6-1.8.2-3.5.1-5-.1-3.1-.5-5.5-1.7-7.2-2.9-1.8-1.2-2.9-2.4-3.7-3.2-.4-.4-.6-.7-.8-1-.3-.2-.4-.3-.4-.3z"/></g><g id="XMLID_90_"><path id="XMLID_101_" class="st0" d="M374.9 64.7s-.6-.4-1.7-1.1c-1.1-.7-2.8-1.6-5.1-2.3-1.1-.4-2.4-.6-3.8-.8-1.4-.1-2.9-.2-4.4-.1-1.6.2-3.2.5-4.7 1.2-.4.1-.8.3-1.1.5-.4.2-.7.4-1.1.6l-.3.2h-.1c-.1.1.2-.1.1-.1l-.2.1-.6.5-.6.5-.4.4c-.2.3-.5.5-.8.9-.3.4-.5.7-.8 1-.2.4-.4.8-.7 1.1-.2.4-.4.8-.5 1.2-.6 1.7-.9 3.6-.9 5.5.1 1.9.5 3.9 1.3 5.8.2.5.4.9.7 1.3.3.4.5.8.8 1.3l.8 1c.4.5.9 1 1.4 1.4.3.2.7.5 1 .8.4.3.9.6 1.3.9l1.4.8 1.5.6c2 .8 4.3 1.2 6.5 1.3 2.2.1 4.4-.3 6.2-.9l.6-.3.6-.3c.2-.1.3-.2.5-.3l.1-.1c.2-.1-.2.2-.1.1l.1-.1.4-.3.1-.1.1-.1c.1-.1.2-.2.3-.4.2-.2.3-.5.4-.8.5-1.3.6-3.7.4-6.2-.2-2.5-.6-5.3-1-8-.4-2.8-.7-5.6-.9-8.4-.2-2.8-.4-5.6-.3-8.5v-2c0-.7.1-1.4.1-2.1 0-1.4.2-2.7.3-4.1.3-2.6.6-5.2 1.2-7.7 1-5 2.3-9.5 3.8-13.6.7-2.1 1.6-4 2.3-5.8.8-1.8 1.6-3.5 2.4-5 .8-1.6 1.6-3 2.3-4.3.8-1.3 1.5-2.5 2.1-3.6 1.3-2.1 2.5-3.7 3.2-4.8.8-1.1 1.2-1.7 1.2-1.7s-.2.7-.7 1.9c-.2.6-.5 1.4-.9 2.3-.3.9-.7 1.9-1.1 3.1-.4 1.2-.9 2.4-1.3 3.9-.2.7-.5 1.4-.7 2.2-.2.8-.5 1.6-.7 2.4-1 3.3-1.9 6.9-2.8 11-.8 4-1.5 8.4-1.9 13.1-.2 2.3-.3 4.7-.4 7.1v3.7c0 .6 0 1.2.1 1.8 0 .7.1 1.3.1 2 .2 2.4.4 5 .8 7.6.4 2.6.8 5.2 1.2 8 .4 2.7 1 5.5 1.2 8.6.1 1.5.2 3.1.2 4.9-.1 1.7-.3 3.6-1 5.6-.4 1-.8 2-1.5 2.9-.3.5-.7.9-1 1.3-.4.4-.9 1-1.3 1.3l-.4.3-.4.3-.3.2-1.3.9c-.4.3-.9.5-1.3.7-.4.2-.9.4-1.3.6-3.5 1.3-7 1.6-10.3 1.4-3.3-.2-6.5-1-9.5-2.4-.7-.4-1.5-.7-2.2-1.1-.7-.4-1.4-.9-2.1-1.3-.7-.5-1.3-1-2-1.5-.7-.6-1.3-1.3-1.9-1.9l-1.2-1.5-.4-.2-.1-.1-.2-.3-.3-.5-.7-1c-.4-.7-.7-1.4-1.1-2.1-.3-.7-.6-1.5-.8-2.2-.9-2.9-1.3-6-1-8.9.2-2.9 1-5.7 2.3-8.1.4-.6.7-1.2 1.1-1.8.4-.5.8-1.1 1.2-1.6.4-.5.9-1 1.4-1.4.4-.5 1.1-.9 1.6-1.3.3-.2.6-.4.8-.6l.7-.4.7-.4.2-.1s.3-.2.2-.1h.2l.4-.2c.5-.2 1.1-.5 1.6-.6.5-.2 1.1-.3 1.6-.4 2.2-.5 4.2-.6 6.1-.4 1.9.2 3.6.6 5.1 1.1 1.5.6 2.8 1.2 3.9 1.8 2.2 1.3 3.7 2.7 4.6 3.7.5.5.8.9 1 1.2l.4.4z"/></g><g id="XMLID_87_"><path id="XMLID_98_" class="st0" d="M232.6 9.3v1.6c0 1-.1 2.5-.2 4.4-.2 3.7-.5 9.1-.8 15.5-.2 3.2-.3 6.6-.5 10.3-.2 3.6-.3 7.5-.4 11.4 0 2-.1 4-.1 6v12.4c0 2.1 0 4.1.1 6.2.1 4.1.3 8.3.7 12.3.1 1 .2 2 .4 2.9.1 1 .2 2 .4 2.9.2.9.3 1.9.5 2.8.2.9.4 1.8.7 2.6.5 1.7 1.1 3.2 1.8 4.4.3.6.7 1.1 1.1 1.5l.5.5.2.1c-.2-.1 0 0-.1 0h.1l.1.1.5.3c.2.1.5.3.8.4.3.1.6.3 1 .4.6.2 1.3.4 2 .5 1.3.2 2.6.2 3.8 0 .3 0 .6-.1.9-.2l.4-.2h.2s-.2.1-.1.1l.3-.1c.3-.2.7-.4.9-.5.2-.1.4-.2.6-.4.9-.7 1.7-1.6 2.3-2.5 1.3-1.9 2-4 2.4-5.7.4-1.8.5-3.2.6-4.2 0-1 .1-1.6.1-1.6s.2.5.5 1.5.7 2.5.8 4.4c.1 2 .1 4.5-.9 7.3-.5 1.4-1.3 2.9-2.4 4.3-.5.7-1.5 1.5-2 1.9-.9.7-1.7 1.1-2.6 1.6-1.9.8-4 1.2-6.1 1.3-1.1 0-2.1-.1-3.2-.3-.5-.1-1.1-.2-1.6-.4s-1.1-.3-1.7-.6l-.7-.3-.2-.1h-.1c-.1 0 .1 0-.1-.1h-.1l-.4-.2c-.6-.3-1.2-.7-1.7-1.2-1.1-.9-1.9-1.8-2.7-2.8-.7-1-1.4-2-1.9-3-.6-1-1-2.1-1.4-3.1-.4-1.1-.8-2.1-1.1-3.2-.3-1.1-.6-2.1-.9-3.2-.5-2.2-1-4.3-1.2-6.5-.7-4.4-.9-8.8-1.1-13.2V71c0-2.2.2-4.3.2-6.4.1-2.2.3-4.3.4-6.4.2-2.1.4-4.2.6-6.2 1-8.1 2.4-15.6 4-21.9 1.6-6.3 3.3-11.5 4.6-15 .6-1.8 1.2-3.2 1.6-4.1 0-1.2.2-1.7.2-1.7z"/></g><g id="XMLID_84_"><path id="XMLID_95_" class="st0" d="M268.3 6v1.6c0 1-.1 2.5-.2 4.4-.2 3.7-.5 9.1-.8 15.5-.2 3.2-.3 6.6-.5 10.3-.2 3.6-.3 7.5-.4 11.4 0 2-.1 4-.1 6v12.4c0 2.1 0 4.1.1 6.2.1 4.1.3 8.3.7 12.3.1 1 .2 2 .4 2.9.1 1 .2 2 .4 2.9.2.9.3 1.9.5 2.8.2.9.4 1.8.7 2.6.5 1.7 1.1 3.2 1.8 4.4.3.6.7 1.1 1.1 1.5l.5.5.2.1c-.2-.1 0 0-.1 0h.1l.1.1.5.3c.2.1.5.3.8.4.3.1.6.3 1 .4.6.2 1.3.4 2 .5 1.3.2 2.6.2 3.8 0 .3 0 .6-.1.9-.2l.4-.2h.2s-.2.1-.1.1l.3-.1c.3-.2.7-.4.9-.5.2-.1.4-.2.6-.4.9-.7 1.7-1.6 2.3-2.5 1.3-1.9 2-4 2.4-5.7.4-1.8.5-3.2.6-4.2 0-1 .1-1.6.1-1.6s.2.5.5 1.5.7 2.5.8 4.4c.1 2 .1 4.5-.9 7.3-.5 1.4-1.3 2.9-2.4 4.3-.5.7-1.5 1.5-2 1.9-.9.7-1.7 1.1-2.6 1.6-1.9.8-4 1.2-6.1 1.3-1.1 0-2.1-.1-3.2-.3-.5-.1-1.1-.2-1.6-.4s-1.1-.3-1.7-.6l-.7-.3-.2-.1h-.1c-.1 0 .1 0-.1-.1h-.1l-.4-.2c-.6-.3-1.2-.7-1.7-1.2-1.1-.9-1.9-1.8-2.7-2.8-.7-1-1.4-2-1.9-3-.6-1-1-2.1-1.4-3.1-.4-1.1-.8-2.1-1.1-3.2-.3-1.1-.6-2.1-.9-3.2-.5-2.2-1-4.3-1.2-6.5-.7-4.4-.9-8.8-1.1-13.2v-6.6c0-2.2.2-4.3.2-6.4.1-2.2.3-4.3.4-6.4.2-2.1.4-4.2.6-6.2 1-8.1 2.4-15.6 4-21.9 1.6-6.3 3.3-11.5 4.6-15 .6-1.8 1.2-3.2 1.6-4.1 0-1.2.2-1.7.2-1.7z"/></g><g id="XMLID_73_"><g id="XMLID_81_"><path id="XMLID_92_" class="st0" d="M179.5 38.1s.2-.1.7-.1c.5-.1 1.2-.1 2.1-.2 1.9-.2 4.6-.4 8-.7 6.9-.6 16.8-1.3 28.6-2.2 11.8-.9 25.7-1.9 40.5-3 7.4-.6 15-1.1 22.8-1.9 7.7-.8 15.6-1.6 23.5-2.6 7.8-1 15.7-1.9 23.4-3.1 7.7-1.1 15.3-2.2 22.6-3.3 3.7-.5 7.3-1 10.8-1.5 3.5-.5 7-1 10.4-1.4 3.4-.4 6.7-.8 9.9-1.1 3.2-.3 6.3-.5 9.3-.7 6-.3 11.5-.3 16.4-.2 2.4.1 4.7.2 6.8.3 2.1.2 4 .4 5.8.5 3.5.4 6.2.7 8 1.1 1.8.3 2.8.5 2.8.5l-.1.7s-1 0-2.9.1c-.9 0-2.1 0-3.4.1-1.3 0-2.9.1-4.6.2-3.5.2-7.6.3-12.4.7-2.4.2-4.9.4-7.6.7-2.7.3-5.5.6-8.4 1-2.9.4-5.9.8-9.1 1.3-3.1.5-6.4 1-9.7 1.6-6.6 1.2-13.8 2.4-21.2 3.5-7.4 1-15 1.8-22.8 2.6-7.8.7-15.7 1.5-23.6 2.1-7.9.7-15.8 1.3-23.6 1.8-7.8.5-15.5.9-22.9 1.2-7.4.3-14.6.6-21.4.8-6.8.2-13.2.4-19.2.6-11.9.4-21.8.7-28.7.9-3.5.1-6.2.2-8 .3-.9.1-1.6.1-2.1.1-.4 0-.7.1-.7.1v-.8z"/></g><path id="XMLID_80_" class="st0" d="M402 9c-.9 2 8.7 4.5 8.3 11.4-.4 6.9-7.7 9.8-7.2 10.9.9 1.8 14.9-6.7 28.8-11.6C441.1 16.4 403.4 5.8 402 9z"/><g id="XMLID_77_"><path id="XMLID_89_" class="st0" d="M184.7 27.2c.7.2 1.3.5 1.9.7.6.3 1.2.5 1.7.8 1.1.6 2.2 1.3 3.2 2 .5.4 1 .7 1.5 1.1.5.4.9.8 1.4 1.2.9.8 1.8 1.6 2.6 2.5l1.8 1.9-1.6 2.1c-.7 1-1.5 1.9-2.3 2.8-.4.4-.8.9-1.3 1.3-.4.4-.9.8-1.3 1.3-.5.4-.9.8-1.4 1.2-.5.4-1 .8-1.5 1.1-.5.4-1 .7-1.6 1-.6.3-1.1.7-1.8.9.1-.7.3-1.3.4-1.9l.6-1.8c.2-.6.5-1.2.7-1.7.2-.6.5-1.1.8-1.7.3-.5.6-1.1.9-1.6.3-.5.6-1 .9-1.6.6-1 1.3-2 2.1-3l.2 3.9-2.4-2.7c-.4-.5-.8-.9-1.1-1.4-.4-.5-.7-1-1.1-1.5-.7-1-1.3-2.1-1.9-3.2-.3-.6-.6-1.1-.8-1.7-.2-.8-.4-1.4-.6-2z"/></g><g id="XMLID_74_"><path id="XMLID_79_" class="st0" d="M200.2 26.2c.7.2 1.3.5 1.9.7.6.3 1.2.5 1.7.8 1.1.6 2.2 1.3 3.2 2 .5.4 1 .7 1.5 1.1.5.4.9.8 1.4 1.2.9.8 1.8 1.6 2.6 2.5l1.8 1.9-1.6 2.1c-.7 1-1.5 1.9-2.3 2.8-.4.4-.8.9-1.3 1.3-.4.4-.9.8-1.3 1.3-.5.4-.9.8-1.4 1.2-.5.4-1 .8-1.5 1.1-.5.4-1 .7-1.6 1-.6.3-1.1.7-1.8.9.1-.7.3-1.3.4-1.9l.6-1.8c.2-.6.5-1.2.7-1.7.2-.6.5-1.1.8-1.7.3-.5.6-1.1.9-1.6.3-.5.6-1 .9-1.6.6-1 1.3-2 2.1-3l.2 3.9-2.4-2.7c-.4-.5-.8-.9-1.1-1.4-.4-.5-.7-1-1.1-1.5-.7-1-1.3-2.1-1.9-3.2-.3-.6-.6-1.1-.8-1.7-.2-.7-.5-1.3-.6-2z"/></g></g><g id="XMLID_68_"><path id="XMLID_83_" class="st0" d="M179.7 107s-.5-.2-1.3-.6l-1.6-.8c-.3-.2-.7-.4-1-.6-.3-.2-.7-.5-1.1-.7-1.5-1.1-3.3-2.5-4.9-4.5-1.7-2-3.3-4.5-4.4-7.6-1.1-3.1-1.5-6.9-.8-10.8.1-.5.2-1 .3-1.4l.2-.7.1-.4.2-.4c.3-.9.6-1.7 1.1-2.7.2-.5.5-1 .8-1.5.3-.5.6-.9.8-1.4.3-.5.6-.9 1-1.3.3-.4.6-.9 1-1.3 1.5-1.7 3.2-3.1 5.1-4.4 1.9-1.2 4.1-2.1 6.4-2.8 2.3-.6 4.7-.9 7.1-.9 2.4.1 4.8.5 7.2 1.2l1.6.6c.3.1.4.1.8.3l.9.4c1.3.6 2.3 1.2 3.3 1.9 2 1.4 3.9 3.1 5.5 5 1.5 1.9 2.9 4.1 3.8 6.4.9 2.3 1.5 4.7 1.7 7.1.1 2.4 0 4.8-.6 7-.2 1.1-.7 2.2-1 3.3l-.1.2v.1s-.2.5-.1.3l-.2.3-.3.6-.3.6c-.1.2-.2.4-.4.7-.6 1-1.2 2.1-1.9 2.8-.3.4-.7.8-1 1.2l-1.1 1.1c-1.5 1.4-3.1 2.4-4.7 3.3-3.3 1.6-6.5 2.3-9.2 2.5-2.8.2-5.1-.1-6.9-.4-.5-.1-.9-.2-1.3-.3-.4-.1-.8-.2-1.1-.3-.7-.2-1.3-.4-1.7-.5-1.4-.4-1.9-.6-1.9-.6zm.3-.9s.5.1 1.4.4c.2.1.5.1.8.2.3 0 .6.1.9.1.3 0 .7.1 1.1.1h1.2c1.7-.1 3.8-.4 6-1.4 2.1-1 4.3-2.5 6-4.5.8-1 1.7-2.1 2.3-3.2.2-.3.3-.6.5-.9.1-.3.3-.6.4-.9.4-.6.5-1.1.7-1.7.1-.1.1-.3.2-.5l.2-.6.2-.6.1-.3c.1-.2-.1.3-.1.2v-.2c.2-.7.4-1.3.4-2 .3-1.4.3-2.8.2-4.2-.1-1.4-.4-2.9-.7-4.4-.4-1.4-1.1-2.9-1.9-4.2-.8-1.3-1.9-2.6-3.1-3.7l-1-.8c-.3-.3-.6-.4-.9-.6l-.5-.3c-.1-.1-.4-.2-.6-.3l-.7-.3-.3-.2-.2-.1h-.1c.1 0-.2-.1.1.1-1.6-.6-3.2-1.1-4.9-1.3-1.7-.1-3.4-.1-5 .2-1.7.3-3.3.9-4.8 1.6-1.5.8-2.9 1.7-4.1 2.8l-.9.9c-.3.3-.6.6-.8.9l-.8 1c-.2.3-.4.6-.6 1-.4.5-.8 1.5-1.2 2.3l-.1.2v.1s.1-.2 0-.1l-.1.3-.2.6c-.1.4-.3.7-.4 1.1-1 3-1.2 6.1-.9 9 .4 2.9 1.4 5.5 2.7 7.5 1.3 2.1 2.9 3.6 4.3 4.6.4.3.7.5 1 .7.3.2.7.4 1 .5.3.2.6.3.8.4.3.1.5.2.7.3 1.3 0 1.7.2 1.7.2z"/></g></g></svg>